<svg xmlns="http://www.w3.org/2000/svg" xmlns:xlink="http://www.w3.org/1999/xlink" version="1.1" class="marks" width="483" height="362" viewBox="0 0 483 362"><rect width="483" height="362" fill="#333"/><g fill="none" stroke-miterlimit="10" transform="translate(34,11)"><g class="mark-group role-frame root" role="graphics-object" aria-roledescription="group mark container"><g transform="translate(0,0)"><path class="background" aria-hidden="true" d="M0,0h0v0h0Z"/><g><g class="mark-group role-scope concat_0_group" role="graphics-object" aria-roledescription="group mark container"><g transform="translate(0,0)"><path class="background" aria-hidden="true" d="M0.5,0.5h200v300h-200Z" stroke="#888"/><g><g class="mark-group role-axis" aria-hidden="true"><g transform="translate(0.5,0.5)"><path class="background" aria-hidden="true" d="M0,0h0v0h0Z" pointer-events="none"/><g><g class="mark-rule role-axis-grid" pointer-events="none"><line transform="translate(0,300)" x2="200" y2="0" stroke="#888" stroke-width="1" opacity="1"/><line transform="translate(0,257)" x2="200" y2="0" stroke="#888" stroke-width="1" opacity="1"/><line transform="translate(0,214)" x2="200" y2="0" stroke="#888" stroke-width="1" opacity="1"/><line transform="translate(0,171)" x2="200" y2="0" stroke="#888" stroke-width="1" opacity="1"/><line transform="translate(0,129)" x2="200" y2="0" stroke="#888" stroke-width="1" opacity="1"/><line transform="translate(0,86)" x2="200" y2="0" stroke="#888" stroke-width="1" opacity="1"/><line transform="translate(0,43)" x2="200" y2="0" stroke="#888" stroke-width="1" opacity="1"/><line transform="translate(0,0)" x2="200" y2="0" stroke="#888" stroke-width="1" opacity="1"/></g></g><path class="foreground" aria-hidden="true" d="" pointer-events="none" display="none"/></g></g><g class="mark-group role-axis" role="graphics-symbol" aria-roledescription="axis" aria-label="X-axis titled 'year' for a discrete scale with 10 values: 2015, 2016, 2017, 2018, 2019, ending with 2024"><g transform="translate(0.5,300.5)"><path class="background" aria-hidden="true" d="M0,0h0v0h0Z" pointer-events="none"/><g><g class="mark-rule role-axis-tick" pointer-events="none"><line transform="translate(10,0)" x2="0" y2="5" stroke="#fff" stroke-width="1" opacity="1"/><line transform="translate(30,0)" x2="0" y2="5" stroke="#fff" stroke-width="1" opacity="1"/><line transform="translate(50,0)" x2="0" y2="5" stroke="#fff" stroke-width="1" opacity="1"/><line transform="translate(70,0)" x2="0" y2="5" stroke="#fff" stroke-width="1" opacity="1"/><line transform="translate(90,0)" x2="0" y2="5" stroke="#fff" stroke-width="1" opacity="1"/><line transform="translate(110,0)" x2="0" y2="5" stroke="#fff" stroke-width="1" opacity="1"/><line transform="translate(130,0)" x2="0" y2="5" stroke="#fff" stroke-width="1" opacity="1"/><line transform="translate(150,0)" x2="0" y2="5" stroke="#fff" stroke-width="1" opacity="1"/><line transform="translate(170,0)" x2="0" y2="5" stroke="#fff" stroke-width="1" opacity="1"/><line transform="translate(190,0)" x2="0" y2="5" stroke="#fff" stroke-width="1" opacity="1"/></g><g class="mark-text role-axis-label" pointer-events="none"><text text-anchor="end" transform="translate(10,7) rotate(270) translate(0,3)" font-family="sans-serif" font-size="10px" fill="#fff" opacity="1">2015</text><text text-anchor="end" transform="translate(30,7) rotate(270) translate(0,3)" font-family="sans-serif" font-size="10px" fill="#fff" opacity="1">2016</text><text text-anchor="end" transform="translate(50,7) rotate(270) translate(0,3)" font-family="sans-serif" font-size="10px" fill="#fff" opacity="1">2017</text><text text-anchor="end" transform="translate(70,7) rotate(270) translate(0,3)" font-family="sans-serif" font-size="10px" fill="#fff" opacity="1">2018</text><text text-anchor="end" transform="translate(90,7) rotate(270) translate(0,3)" font-family="sans-serif" font-size="10px" fill="#fff" opacity="1">2019</text><text text-anchor="end" transform="translate(110,7) rotate(270) translate(0,3)" font-family="sans-serif" font-size="10px" fill="#fff" opacity="1">2020</text><text text-anchor="end" transform="translate(130,7) rotate(270) translate(0,3)" font-family="sans-serif" font-size="10px" fill="#fff" opacity="1">2021</text><text text-anchor="end" transform="translate(150,7) rotate(270) translate(0,3)" font-family="sans-serif" font-size="10px" fill="#fff" opacity="1">2022</text><text text-anchor="end" transform="translate(170,7) rotate(270) translate(0,3)" font-family="sans-serif" font-size="10px" fill="#fff" opacity="1">2023</text><text text-anchor="end" transform="translate(190,7) rotate(270) translate(0,3)" font-family="sans-serif" font-size="10px" fill="#fff" opacity="1">2024</text></g><g class="mark-rule role-axis-domain" pointer-events="none"><line transform="translate(0,0)" x2="200" y2="0" stroke="#fff" stroke-width="1" opacity="1"/></g><g class="mark-text role-axis-title" pointer-events="none"><text text-anchor="middle" transform="translate(100,42.24609375)" font-family="sans-serif" font-size="11px" font-weight="bold" fill="#fff" opacity="1">year</text></g></g><path class="foreground" aria-hidden="true" d="" pointer-events="none" display="none"/></g></g><g class="mark-group role-axis" role="graphics-symbol" aria-roledescription="axis" aria-label="Y-axis titled 'slope' for a linear scale with values from 0 to 7"><g transform="translate(0.5,0.5)"><path class="background" aria-hidden="true" d="M0,0h0v0h0Z" pointer-events="none"/><g><g class="mark-rule role-axis-tick" pointer-events="none"><line transform="translate(0,300)" x2="-5" y2="0" stroke="#fff" stroke-width="1" opacity="1"/><line transform="translate(0,257)" x2="-5" y2="0" stroke="#fff" stroke-width="1" opacity="1"/><line transform="translate(0,214)" x2="-5" y2="0" stroke="#fff" stroke-width="1" opacity="1"/><line transform="translate(0,171)" x2="-5" y2="0" stroke="#fff" stroke-width="1" opacity="1"/><line transform="translate(0,129)" x2="-5" y2="0" stroke="#fff" stroke-width="1" opacity="1"/><line transform="translate(0,86)" x2="-5" y2="0" stroke="#fff" stroke-width="1" opacity="1"/><line transform="translate(0,43)" x2="-5" y2="0" stroke="#fff" stroke-width="1" opacity="1"/><line transform="translate(0,0)" x2="-5" y2="0" stroke="#fff" stroke-width="1" opacity="1"/></g><g class="mark-text role-axis-label" pointer-events="none"><text text-anchor="end" transform="translate(-7,303)" font-family="sans-serif" font-size="10px" fill="#fff" opacity="1">0</text><text text-anchor="end" transform="translate(-7,260.14285714285717)" font-family="sans-serif" font-size="10px" fill="#fff" opacity="1">1</text><text text-anchor="end" transform="translate(-7,217.28571428571428)" font-family="sans-serif" font-size="10px" fill="#fff" opacity="1">2</text><text text-anchor="end" transform="translate(-7,174.42857142857142)" font-family="sans-serif" font-size="10px" fill="#fff" opacity="1">3</text><text text-anchor="end" transform="translate(-7,131.57142857142858)" font-family="sans-serif" font-size="10px" fill="#fff" opacity="1">4</text><text text-anchor="end" transform="translate(-7,88.71428571428571)" font-family="sans-serif" font-size="10px" fill="#fff" opacity="1">5</text><text text-anchor="end" transform="translate(-7,45.85714285714287)" font-family="sans-serif" font-size="10px" fill="#fff" opacity="1">6</text><text text-anchor="end" transform="translate(-7,3)" font-family="sans-serif" font-size="10px" fill="#fff" opacity="1">7</text></g><g class="mark-rule role-axis-domain" pointer-events="none"><line transform="translate(0,300)" x2="0" y2="-300" stroke="#fff" stroke-width="1" opacity="1"/></g><g class="mark-text role-axis-title" pointer-events="none"><text text-anchor="middle" transform="translate(-16.5615234375,150) rotate(-90) translate(0,-2)" font-family="sans-serif" font-size="11px" font-weight="bold" fill="#fff" opacity="1">slope</text></g></g><path class="foreground" aria-hidden="true" d="" pointer-events="none" display="none"/></g></g><g class="mark-group role-scope concat_0_pathgroup" role="graphics-object" aria-roledescription="group mark container"><g transform="translate(0,0)"><path class="background" aria-hidden="true" d="M0,0h200v300h-200Z"/><g><g class="mark-line role-mark concat_0_marks" role="graphics-object" aria-roledescription="line mark container"><path aria-label="year: 2015; slope: 0.957643199565; function: 0; title: Allgemeine Dienste" role="graphics-symbol" aria-roledescription="line mark" d="M10,258.958L30,253.981L50,253.409L70,254.992L90,252.825L110,253.291L130,254.571L150,254.606L170,257.664L190,255.087" stroke="#4c78a8" stroke-width="2" opacity="0.8"/></g></g><path class="foreground" aria-hidden="true" d="" display="none"/></g><g transform="translate(0,0)"><path class="background" aria-hidden="true" d="M0,0h200v300h-200Z"/><g><g class="mark-line role-mark concat_0_marks" role="graphics-object" aria-roledescription="line mark container"><path aria-label="year: 2015; slope: 1.07526621423; function: 1; title: Bildungswesen, Wissenschaft, Forschung, kulturelle Angelegenheiten" role="graphics-symbol" aria-roledescription="line mark" d="M10,253.917L30,254.656L50,253.291L70,256.655L90,254.507L110,249.439L130,255.003L150,256.629L170,255.45L190,260.731" stroke="#f58518" stroke-width="2" opacity="0.8"/></g></g><path class="foreground" aria-hidden="true" d="" display="none"/></g><g transform="translate(0,0)"><path class="background" aria-hidden="true" d="M0,0h200v300h-200Z"/><g><g class="mark-line role-mark concat_0_marks" role="graphics-object" aria-roledescription="line mark container"><path aria-label="year: 2015; slope: 1.04344508211; function: 2; title: Soziale Sicherung, Familie und Jugend, Arbeitsmarktpolitik" role="graphics-symbol" aria-roledescription="line mark" d="M10,255.281L30,255.147L50,254.754L70,256.509L90,255.525L110,239.025L130,252.241L150,262.588L170,263.059L190,256.317" stroke="#e45756" stroke-width="2" opacity="0.8"/></g></g><path class="foreground" aria-hidden="true" d="" display="none"/></g><g transform="translate(0,0)"><path class="background" aria-hidden="true" d="M0,0h200v300h-200Z"/><g><g class="mark-line role-mark concat_0_marks" role="graphics-object" aria-roledescription="line mark container"><path aria-label="year: 2015; slope: 1.01645701126; function: 3; title: Gesundheit, Umwelt, Sport und Erholung" role="graphics-symbol" aria-roledescription="line mark" d="M10,256.438L30,251.458L50,256.917L70,247.319L90,244.193L110,9.02L130,257.382L150,264.67L170,280.466L190,275.087" stroke="#72b7b2" stroke-width="2" opacity="0.8"/></g></g><path class="foreground" aria-hidden="true" d="" display="none"/></g><g transform="translate(0,0)"><path class="background" aria-hidden="true" d="M0,0h200v300h-200Z"/><g><g class="mark-line role-mark concat_0_marks" role="graphics-object" aria-roledescription="line mark container"><path aria-label="year: 2015; slope: 1.00098576278; function: 4; title: Wohnungswesen, Städtebau, Raumordnung und kommunale&#xA;  Gemeinschaftsdienste" role="graphics-symbol" aria-roledescription="line mark" d="M10,257.101L30,251.141L50,243.055L70,254.248L90,254.311L110,270.814L130,250.558L150,248.052L170,253.496L190,255.7" stroke="#54a24b" stroke-width="2" opacity="0.8"/></g></g><path class="foreground" aria-hidden="true" d="" display="none"/></g><g transform="translate(0,0)"><path class="background" aria-hidden="true" d="M0,0h200v300h-200Z"/><g><g class="mark-line role-mark concat_0_marks" role="graphics-object" aria-roledescription="line mark container"><path aria-label="year: 2015; slope: 1.01235391938; function: 5; title: Landwirtschaft und Ernährung" role="graphics-symbol" aria-roledescription="line mark" d="M10,256.613L30,252.987L50,249.777L70,257.709L90,250.546L110,238.44L130,245.257L150,264.58L170,257.61L190,264.738" stroke="#eeca3b" stroke-width="2" opacity="0.8"/></g></g><path class="foreground" aria-hidden="true" d="" display="none"/></g><g transform="translate(0,0)"><path class="background" aria-hidden="true" d="M0,0h200v300h-200Z"/><g><g class="mark-line role-mark concat_0_marks" role="graphics-object" aria-roledescription="line mark container"><path aria-label="year: 2015; slope: 1.0616574555; function: 6; title: Energie- und Wasserwirtschaft, Gewerbe, Dienstleistungen&quot;" role="graphics-symbol" aria-roledescription="line mark" d="M10,254.5L30,243.305L50,255.909L70,261.102L90,260.12L110,170.657L130,258.849L150,256.288L170,240.355L190,272.112" stroke="#b279a2" stroke-width="2" opacity="0.8"/></g></g><path class="foreground" aria-hidden="true" d="" display="none"/></g><g transform="translate(0,0)"><path class="background" aria-hidden="true" d="M0,0h200v300h-200Z"/><g><g class="mark-line role-mark concat_0_marks" role="graphics-object" aria-roledescription="line mark container"><path aria-label="year: 2015; slope: 1.03076939285; function: 7; title: Verkehrs- und Nachrichtenwesen" role="graphics-symbol" aria-roledescription="line mark" d="M10,255.824L30,252.194L50,252.745L70,256.481L90,255.128L110,243.993L130,250.092L150,263.311L170,258.374L190,245.593" stroke="#ff9da6" stroke-width="2" opacity="0.8"/></g></g><path class="foreground" aria-hidden="true" d="" display="none"/></g><g transform="translate(0,0)"><path class="background" aria-hidden="true" d="M0,0h200v300h-200Z"/><g><g class="mark-line role-mark concat_0_marks" role="graphics-object" aria-roledescription="line mark container"><path aria-label="year: 2015; slope: 1.14431921394; function: 8; title: Finanzwirtschaft" role="graphics-symbol" aria-roledescription="line mark" d="M10,250.958L30,265.532L50,268.298L70,243.613L90,264.686L110,179.584L130,255.366L150,279.746L170,231.452L190,258.724" stroke="#9d755d" stroke-width="2" opacity="0.8"/></g></g><path class="foreground" aria-hidden="true" d="" display="none"/></g></g></g><path class="foreground" aria-hidden="true" d="" display="none"/></g></g><g class="mark-group role-scope view_3_group" role="graphics-object" aria-roledescription="group mark container"><g transform="translate(222,0)"><path class="background" aria-hidden="true" d="M0.5,0.5h20v180h-20Z" stroke="#888"/><g><g class="mark-group role-axis" role="graphics-symbol" aria-roledescription="axis" aria-label="Y-axis titled 'title' for a discrete scale with 9 values: Allgemeine Dienste, Bildungswesen, Wissenschaft, Forschung, kulturelle Angelegenheiten, Energie- und Wasserwirtschaft, Gewerbe, Dienstleistungen&quot;, Finanzwirtschaft, Gesundheit, Umwelt, Sport und Erholung, ending with Wohnungswesen, Städtebau, Raumordnung und kommunale&#xA;  Gemeinschaftsdienste"><g transform="translate(20.5,0.5)"><path class="background" aria-hidden="true" d="M0,0h0v0h0Z" pointer-events="none"/><g><g class="mark-rule role-axis-tick" pointer-events="none"><line transform="translate(0,10)" x2="5" y2="0" stroke="#fff" stroke-width="1" opacity="1"/><line transform="translate(0,30)" x2="5" y2="0" stroke="#fff" stroke-width="1" opacity="1"/><line transform="translate(0,50)" x2="5" y2="0" stroke="#fff" stroke-width="1" opacity="1"/><line transform="translate(0,70)" x2="5" y2="0" stroke="#fff" stroke-width="1" opacity="1"/><line transform="translate(0,90)" x2="5" y2="0" stroke="#fff" stroke-width="1" opacity="1"/><line transform="translate(0,110)" x2="5" y2="0" stroke="#fff" stroke-width="1" opacity="1"/><line transform="translate(0,130)" x2="5" y2="0" stroke="#fff" stroke-width="1" opacity="1"/><line transform="translate(0,150)" x2="5" y2="0" stroke="#fff" stroke-width="1" opacity="1"/><line transform="translate(0,170)" x2="5" y2="0" stroke="#fff" stroke-width="1" opacity="1"/></g><g class="mark-text role-axis-label" pointer-events="none"><text text-anchor="start" transform="translate(7,13)" font-family="sans-serif" font-size="10px" fill="#fff" opacity="1">Allgemeine Dienste</text><text text-anchor="start" transform="translate(7,33)" font-family="sans-serif" font-size="10px" fill="#fff" opacity="1">Bildungswesen, Wissenschaft, Forsch…</text><text text-anchor="start" transform="translate(7,53)" font-family="sans-serif" font-size="10px" fill="#fff" opacity="1">Energie- und Wasserwirtschaft, Gewe…</text><text text-anchor="start" transform="translate(7,73)" font-family="sans-serif" font-size="10px" fill="#fff" opacity="1">Finanzwirtschaft</text><text text-anchor="start" transform="translate(7,93)" font-family="sans-serif" font-size="10px" fill="#fff" opacity="1">Gesundheit, Umwelt, Sport und Erhol…</text><text text-anchor="start" transform="translate(7,113)" font-family="sans-serif" font-size="10px" fill="#fff" opacity="1">Landwirtschaft und Ernährung</text><text text-anchor="start" transform="translate(7,133)" font-family="sans-serif" font-size="10px" fill="#fff" opacity="1">Soziale Sicherung, Familie und Jugen…</text><text text-anchor="start" transform="translate(7,153)" font-family="sans-serif" font-size="10px" fill="#fff" opacity="1">Verkehrs- und Nachrichtenwesen</text><text text-anchor="start" transform="translate(7,173)" font-family="sans-serif" font-size="10px" fill="#fff" opacity="1">Wohnungswesen, Städtebau, Raumor…</text></g><g class="mark-rule role-axis-domain" pointer-events="none"><line transform="translate(0,0)" x2="0" y2="180" stroke="#fff" stroke-width="1" opacity="1"/></g><g class="mark-text role-axis-title" pointer-events="none"><text text-anchor="middle" transform="translate(189.8134765625,90) rotate(90) translate(0,-2)" font-family="sans-serif" font-size="11px" font-weight="bold" fill="#fff" opacity="1">title</text></g></g><path class="foreground" aria-hidden="true" d="" pointer-events="none" display="none"/></g></g><g class="mark-symbol role-mark view_3_marks" role="graphics-object" aria-roledescription="symbol mark container"><path aria-label="title: Allgemeine Dienste; function: 0" role="graphics-symbol" aria-roledescription="point" transform="translate(10,10)" d="M2.739,0A2.739,2.739,0,1,1,-2.739,0A2.739,2.739,0,1,1,2.739,0" stroke="#4c78a8" stroke-width="2" opacity="0.7"/><path aria-label="title: Allgemeine Dienste; function: 0" role="graphics-symbol" aria-roledescription="point" transform="translate(10,10)" d="M2.739,0A2.739,2.739,0,1,1,-2.739,0A2.739,2.739,0,1,1,2.739,0" stroke="#4c78a8" stroke-width="2" opacity="0.7"/><path aria-label="title: Allgemeine Dienste; function: 0" role="graphics-symbol" aria-roledescription="point" transform="translate(10,10)" d="M2.739,0A2.739,2.739,0,1,1,-2.739,0A2.739,2.739,0,1,1,2.739,0" stroke="#4c78a8" stroke-width="2" opacity="0.7"/><path aria-label="title: Allgemeine Dienste; function: 0" role="graphics-symbol" aria-roledescription="point" transform="translate(10,10)" d="M2.739,0A2.739,2.739,0,1,1,-2.739,0A2.739,2.739,0,1,1,2.739,0" stroke="#4c78a8" stroke-width="2" opacity="0.7"/><path aria-label="title: Allgemeine Dienste; function: 0" role="graphics-symbol" aria-roledescription="point" transform="translate(10,10)" d="M2.739,0A2.739,2.739,0,1,1,-2.739,0A2.739,2.739,0,1,1,2.739,0" stroke="#4c78a8" stroke-width="2" opacity="0.7"/><path aria-label="title: Allgemeine Dienste; function: 0" role="graphics-symbol" aria-roledescription="point" transform="translate(10,10)" d="M2.739,0A2.739,2.739,0,1,1,-2.739,0A2.739,2.739,0,1,1,2.739,0" stroke="#4c78a8" stroke-width="2" opacity="0.7"/><path aria-label="title: Allgemeine Dienste; function: 0" role="graphics-symbol" aria-roledescription="point" transform="translate(10,10)" d="M2.739,0A2.739,2.739,0,1,1,-2.739,0A2.739,2.739,0,1,1,2.739,0" stroke="#4c78a8" stroke-width="2" opacity="0.7"/><path aria-label="title: Allgemeine Dienste; function: 0" role="graphics-symbol" aria-roledescription="point" transform="translate(10,10)" d="M2.739,0A2.739,2.739,0,1,1,-2.739,0A2.739,2.739,0,1,1,2.739,0" stroke="#4c78a8" stroke-width="2" opacity="0.7"/><path aria-label="title: Allgemeine Dienste; function: 0" role="graphics-symbol" aria-roledescription="point" transform="translate(10,10)" d="M2.739,0A2.739,2.739,0,1,1,-2.739,0A2.739,2.739,0,1,1,2.739,0" stroke="#4c78a8" stroke-width="2" opacity="0.7"/><path aria-label="title: Allgemeine Dienste; function: 0" role="graphics-symbol" aria-roledescription="point" transform="translate(10,10)" d="M2.739,0A2.739,2.739,0,1,1,-2.739,0A2.739,2.739,0,1,1,2.739,0" stroke="#4c78a8" stroke-width="2" opacity="0.7"/><path aria-label="title: Bildungswesen, Wissenschaft, Forschung, kulturelle Angelegenheiten; function: 1" role="graphics-symbol" aria-roledescription="point" transform="translate(10,30)" d="M2.739,0A2.739,2.739,0,1,1,-2.739,0A2.739,2.739,0,1,1,2.739,0" stroke="#f58518" stroke-width="2" opacity="0.7"/><path aria-label="title: Bildungswesen, Wissenschaft, Forschung, kulturelle Angelegenheiten; function: 1" role="graphics-symbol" aria-roledescription="point" transform="translate(10,30)" d="M2.739,0A2.739,2.739,0,1,1,-2.739,0A2.739,2.739,0,1,1,2.739,0" stroke="#f58518" stroke-width="2" opacity="0.7"/><path aria-label="title: Bildungswesen, Wissenschaft, Forschung, kulturelle Angelegenheiten; function: 1" role="graphics-symbol" aria-roledescription="point" transform="translate(10,30)" d="M2.739,0A2.739,2.739,0,1,1,-2.739,0A2.739,2.739,0,1,1,2.739,0" stroke="#f58518" stroke-width="2" opacity="0.7"/><path aria-label="title: Bildungswesen, Wissenschaft, Forschung, kulturelle Angelegenheiten; function: 1" role="graphics-symbol" aria-roledescription="point" transform="translate(10,30)" d="M2.739,0A2.739,2.739,0,1,1,-2.739,0A2.739,2.739,0,1,1,2.739,0" stroke="#f58518" stroke-width="2" opacity="0.7"/><path aria-label="title: Bildungswesen, Wissenschaft, Forschung, kulturelle Angelegenheiten; function: 1" role="graphics-symbol" aria-roledescription="point" transform="translate(10,30)" d="M2.739,0A2.739,2.739,0,1,1,-2.739,0A2.739,2.739,0,1,1,2.739,0" stroke="#f58518" stroke-width="2" opacity="0.7"/><path aria-label="title: Bildungswesen, Wissenschaft, Forschung, kulturelle Angelegenheiten; function: 1" role="graphics-symbol" aria-roledescription="point" transform="translate(10,30)" d="M2.739,0A2.739,2.739,0,1,1,-2.739,0A2.739,2.739,0,1,1,2.739,0" stroke="#f58518" stroke-width="2" opacity="0.7"/><path aria-label="title: Bildungswesen, Wissenschaft, Forschung, kulturelle Angelegenheiten; function: 1" role="graphics-symbol" aria-roledescription="point" transform="translate(10,30)" d="M2.739,0A2.739,2.739,0,1,1,-2.739,0A2.739,2.739,0,1,1,2.739,0" stroke="#f58518" stroke-width="2" opacity="0.7"/><path aria-label="title: Bildungswesen, Wissenschaft, Forschung, kulturelle Angelegenheiten; function: 1" role="graphics-symbol" aria-roledescription="point" transform="translate(10,30)" d="M2.739,0A2.739,2.739,0,1,1,-2.739,0A2.739,2.739,0,1,1,2.739,0" stroke="#f58518" stroke-width="2" opacity="0.7"/><path aria-label="title: Bildungswesen, Wissenschaft, Forschung, kulturelle Angelegenheiten; function: 1" role="graphics-symbol" aria-roledescription="point" transform="translate(10,30)" d="M2.739,0A2.739,2.739,0,1,1,-2.739,0A2.739,2.739,0,1,1,2.739,0" stroke="#f58518" stroke-width="2" opacity="0.7"/><path aria-label="title: Bildungswesen, Wissenschaft, Forschung, kulturelle Angelegenheiten; function: 1" role="graphics-symbol" aria-roledescription="point" transform="translate(10,30)" d="M2.739,0A2.739,2.739,0,1,1,-2.739,0A2.739,2.739,0,1,1,2.739,0" stroke="#f58518" stroke-width="2" opacity="0.7"/><path aria-label="title: Soziale Sicherung, Familie und Jugend, Arbeitsmarktpolitik; function: 2" role="graphics-symbol" aria-roledescription="point" transform="translate(10,130)" d="M2.739,0A2.739,2.739,0,1,1,-2.739,0A2.739,2.739,0,1,1,2.739,0" stroke="#e45756" stroke-width="2" opacity="0.7"/><path aria-label="title: Soziale Sicherung, Familie und Jugend, Arbeitsmarktpolitik; function: 2" role="graphics-symbol" aria-roledescription="point" transform="translate(10,130)" d="M2.739,0A2.739,2.739,0,1,1,-2.739,0A2.739,2.739,0,1,1,2.739,0" stroke="#e45756" stroke-width="2" opacity="0.7"/><path aria-label="title: Soziale Sicherung, Familie und Jugend, Arbeitsmarktpolitik; function: 2" role="graphics-symbol" aria-roledescription="point" transform="translate(10,130)" d="M2.739,0A2.739,2.739,0,1,1,-2.739,0A2.739,2.739,0,1,1,2.739,0" stroke="#e45756" stroke-width="2" opacity="0.7"/><path aria-label="title: Soziale Sicherung, Familie und Jugend, Arbeitsmarktpolitik; function: 2" role="graphics-symbol" aria-roledescription="point" transform="translate(10,130)" d="M2.739,0A2.739,2.739,0,1,1,-2.739,0A2.739,2.739,0,1,1,2.739,0" stroke="#e45756" stroke-width="2" opacity="0.7"/><path aria-label="title: Soziale Sicherung, Familie und Jugend, Arbeitsmarktpolitik; function: 2" role="graphics-symbol" aria-roledescription="point" transform="translate(10,130)" d="M2.739,0A2.739,2.739,0,1,1,-2.739,0A2.739,2.739,0,1,1,2.739,0" stroke="#e45756" stroke-width="2" opacity="0.7"/><path aria-label="title: Soziale Sicherung, Familie und Jugend, Arbeitsmarktpolitik; function: 2" role="graphics-symbol" aria-roledescription="point" transform="translate(10,130)" d="M2.739,0A2.739,2.739,0,1,1,-2.739,0A2.739,2.739,0,1,1,2.739,0" stroke="#e45756" stroke-width="2" opacity="0.7"/><path aria-label="title: Soziale Sicherung, Familie und Jugend, Arbeitsmarktpolitik; function: 2" role="graphics-symbol" aria-roledescription="point" transform="translate(10,130)" d="M2.739,0A2.739,2.739,0,1,1,-2.739,0A2.739,2.739,0,1,1,2.739,0" stroke="#e45756" stroke-width="2" opacity="0.7"/><path aria-label="title: Soziale Sicherung, Familie und Jugend, Arbeitsmarktpolitik; function: 2" role="graphics-symbol" aria-roledescription="point" transform="translate(10,130)" d="M2.739,0A2.739,2.739,0,1,1,-2.739,0A2.739,2.739,0,1,1,2.739,0" stroke="#e45756" stroke-width="2" opacity="0.7"/><path aria-label="title: Soziale Sicherung, Familie und Jugend, Arbeitsmarktpolitik; function: 2" role="graphics-symbol" aria-roledescription="point" transform="translate(10,130)" d="M2.739,0A2.739,2.739,0,1,1,-2.739,0A2.739,2.739,0,1,1,2.739,0" stroke="#e45756" stroke-width="2" opacity="0.7"/><path aria-label="title: Soziale Sicherung, Familie und Jugend, Arbeitsmarktpolitik; function: 2" role="graphics-symbol" aria-roledescription="point" transform="translate(10,130)" d="M2.739,0A2.739,2.739,0,1,1,-2.739,0A2.739,2.739,0,1,1,2.739,0" stroke="#e45756" stroke-width="2" opacity="0.7"/><path aria-label="title: Gesundheit, Umwelt, Sport und Erholung; function: 3" role="graphics-symbol" aria-roledescription="point" transform="translate(10,90)" d="M2.739,0A2.739,2.739,0,1,1,-2.739,0A2.739,2.739,0,1,1,2.739,0" stroke="#72b7b2" stroke-width="2" opacity="0.7"/><path aria-label="title: Gesundheit, Umwelt, Sport und Erholung; function: 3" role="graphics-symbol" aria-roledescription="point" transform="translate(10,90)" d="M2.739,0A2.739,2.739,0,1,1,-2.739,0A2.739,2.739,0,1,1,2.739,0" stroke="#72b7b2" stroke-width="2" opacity="0.7"/><path aria-label="title: Gesundheit, Umwelt, Sport und Erholung; function: 3" role="graphics-symbol" aria-roledescription="point" transform="translate(10,90)" d="M2.739,0A2.739,2.739,0,1,1,-2.739,0A2.739,2.739,0,1,1,2.739,0" stroke="#72b7b2" stroke-width="2" opacity="0.7"/><path aria-label="title: Gesundheit, Umwelt, Sport und Erholung; function: 3" role="graphics-symbol" aria-roledescription="point" transform="translate(10,90)" d="M2.739,0A2.739,2.739,0,1,1,-2.739,0A2.739,2.739,0,1,1,2.739,0" stroke="#72b7b2" stroke-width="2" opacity="0.7"/><path aria-label="title: Gesundheit, Umwelt, Sport und Erholung; function: 3" role="graphics-symbol" aria-roledescription="point" transform="translate(10,90)" d="M2.739,0A2.739,2.739,0,1,1,-2.739,0A2.739,2.739,0,1,1,2.739,0" stroke="#72b7b2" stroke-width="2" opacity="0.7"/><path aria-label="title: Gesundheit, Umwelt, Sport und Erholung; function: 3" role="graphics-symbol" aria-roledescription="point" transform="translate(10,90)" d="M2.739,0A2.739,2.739,0,1,1,-2.739,0A2.739,2.739,0,1,1,2.739,0" stroke="#72b7b2" stroke-width="2" opacity="0.7"/><path aria-label="title: Gesundheit, Umwelt, Sport und Erholung; function: 3" role="graphics-symbol" aria-roledescription="point" transform="translate(10,90)" d="M2.739,0A2.739,2.739,0,1,1,-2.739,0A2.739,2.739,0,1,1,2.739,0" stroke="#72b7b2" stroke-width="2" opacity="0.7"/><path aria-label="title: Gesundheit, Umwelt, Sport und Erholung; function: 3" role="graphics-symbol" aria-roledescription="point" transform="translate(10,90)" d="M2.739,0A2.739,2.739,0,1,1,-2.739,0A2.739,2.739,0,1,1,2.739,0" stroke="#72b7b2" stroke-width="2" opacity="0.7"/><path aria-label="title: Gesundheit, Umwelt, Sport und Erholung; function: 3" role="graphics-symbol" aria-roledescription="point" transform="translate(10,90)" d="M2.739,0A2.739,2.739,0,1,1,-2.739,0A2.739,2.739,0,1,1,2.739,0" stroke="#72b7b2" stroke-width="2" opacity="0.7"/><path aria-label="title: Gesundheit, Umwelt, Sport und Erholung; function: 3" role="graphics-symbol" aria-roledescription="point" transform="translate(10,90)" d="M2.739,0A2.739,2.739,0,1,1,-2.739,0A2.739,2.739,0,1,1,2.739,0" stroke="#72b7b2" stroke-width="2" opacity="0.7"/><path aria-label="title: Wohnungswesen, Städtebau, Raumordnung und kommunale&#xA;  Gemeinschaftsdienste; function: 4" role="graphics-symbol" aria-roledescription="point" transform="translate(10,170)" d="M2.739,0A2.739,2.739,0,1,1,-2.739,0A2.739,2.739,0,1,1,2.739,0" stroke="#54a24b" stroke-width="2" opacity="0.7"/><path aria-label="title: Wohnungswesen, Städtebau, Raumordnung und kommunale&#xA;  Gemeinschaftsdienste; function: 4" role="graphics-symbol" aria-roledescription="point" transform="translate(10,170)" d="M2.739,0A2.739,2.739,0,1,1,-2.739,0A2.739,2.739,0,1,1,2.739,0" stroke="#54a24b" stroke-width="2" opacity="0.7"/><path aria-label="title: Wohnungswesen, Städtebau, Raumordnung und kommunale&#xA;  Gemeinschaftsdienste; function: 4" role="graphics-symbol" aria-roledescription="point" transform="translate(10,170)" d="M2.739,0A2.739,2.739,0,1,1,-2.739,0A2.739,2.739,0,1,1,2.739,0" stroke="#54a24b" stroke-width="2" opacity="0.7"/><path aria-label="title: Wohnungswesen, Städtebau, Raumordnung und kommunale&#xA;  Gemeinschaftsdienste; function: 4" role="graphics-symbol" aria-roledescription="point" transform="translate(10,170)" d="M2.739,0A2.739,2.739,0,1,1,-2.739,0A2.739,2.739,0,1,1,2.739,0" stroke="#54a24b" stroke-width="2" opacity="0.7"/><path aria-label="title: Wohnungswesen, Städtebau, Raumordnung und kommunale&#xA;  Gemeinschaftsdienste; function: 4" role="graphics-symbol" aria-roledescription="point" transform="translate(10,170)" d="M2.739,0A2.739,2.739,0,1,1,-2.739,0A2.739,2.739,0,1,1,2.739,0" stroke="#54a24b" stroke-width="2" opacity="0.7"/><path aria-label="title: Wohnungswesen, Städtebau, Raumordnung und kommunale&#xA;  Gemeinschaftsdienste; function: 4" role="graphics-symbol" aria-roledescription="point" transform="translate(10,170)" d="M2.739,0A2.739,2.739,0,1,1,-2.739,0A2.739,2.739,0,1,1,2.739,0" stroke="#54a24b" stroke-width="2" opacity="0.7"/><path aria-label="title: Wohnungswesen, Städtebau, Raumordnung und kommunale&#xA;  Gemeinschaftsdienste; function: 4" role="graphics-symbol" aria-roledescription="point" transform="translate(10,170)" d="M2.739,0A2.739,2.739,0,1,1,-2.739,0A2.739,2.739,0,1,1,2.739,0" stroke="#54a24b" stroke-width="2" opacity="0.7"/><path aria-label="title: Wohnungswesen, Städtebau, Raumordnung und kommunale&#xA;  Gemeinschaftsdienste; function: 4" role="graphics-symbol" aria-roledescription="point" transform="translate(10,170)" d="M2.739,0A2.739,2.739,0,1,1,-2.739,0A2.739,2.739,0,1,1,2.739,0" stroke="#54a24b" stroke-width="2" opacity="0.7"/><path aria-label="title: Wohnungswesen, Städtebau, Raumordnung und kommunale&#xA;  Gemeinschaftsdienste; function: 4" role="graphics-symbol" aria-roledescription="point" transform="translate(10,170)" d="M2.739,0A2.739,2.739,0,1,1,-2.739,0A2.739,2.739,0,1,1,2.739,0" stroke="#54a24b" stroke-width="2" opacity="0.7"/><path aria-label="title: Wohnungswesen, Städtebau, Raumordnung und kommunale&#xA;  Gemeinschaftsdienste; function: 4" role="graphics-symbol" aria-roledescription="point" transform="translate(10,170)" d="M2.739,0A2.739,2.739,0,1,1,-2.739,0A2.739,2.739,0,1,1,2.739,0" stroke="#54a24b" stroke-width="2" opacity="0.7"/><path aria-label="title: Landwirtschaft und Ernährung; function: 5" role="graphics-symbol" aria-roledescription="point" transform="translate(10,110)" d="M2.739,0A2.739,2.739,0,1,1,-2.739,0A2.739,2.739,0,1,1,2.739,0" stroke="#eeca3b" stroke-width="2" opacity="0.7"/><path aria-label="title: Landwirtschaft und Ernährung; function: 5" role="graphics-symbol" aria-roledescription="point" transform="translate(10,110)" d="M2.739,0A2.739,2.739,0,1,1,-2.739,0A2.739,2.739,0,1,1,2.739,0" stroke="#eeca3b" stroke-width="2" opacity="0.7"/><path aria-label="title: Landwirtschaft und Ernährung; function: 5" role="graphics-symbol" aria-roledescription="point" transform="translate(10,110)" d="M2.739,0A2.739,2.739,0,1,1,-2.739,0A2.739,2.739,0,1,1,2.739,0" stroke="#eeca3b" stroke-width="2" opacity="0.7"/><path aria-label="title: Landwirtschaft und Ernährung; function: 5" role="graphics-symbol" aria-roledescription="point" transform="translate(10,110)" d="M2.739,0A2.739,2.739,0,1,1,-2.739,0A2.739,2.739,0,1,1,2.739,0" stroke="#eeca3b" stroke-width="2" opacity="0.7"/><path aria-label="title: Landwirtschaft und Ernährung; function: 5" role="graphics-symbol" aria-roledescription="point" transform="translate(10,110)" d="M2.739,0A2.739,2.739,0,1,1,-2.739,0A2.739,2.739,0,1,1,2.739,0" stroke="#eeca3b" stroke-width="2" opacity="0.7"/><path aria-label="title: Landwirtschaft und Ernährung; function: 5" role="graphics-symbol" aria-roledescription="point" transform="translate(10,110)" d="M2.739,0A2.739,2.739,0,1,1,-2.739,0A2.739,2.739,0,1,1,2.739,0" stroke="#eeca3b" stroke-width="2" opacity="0.7"/><path aria-label="title: Landwirtschaft und Ernährung; function: 5" role="graphics-symbol" aria-roledescription="point" transform="translate(10,110)" d="M2.739,0A2.739,2.739,0,1,1,-2.739,0A2.739,2.739,0,1,1,2.739,0" stroke="#eeca3b" stroke-width="2" opacity="0.7"/><path aria-label="title: Landwirtschaft und Ernährung; function: 5" role="graphics-symbol" aria-roledescription="point" transform="translate(10,110)" d="M2.739,0A2.739,2.739,0,1,1,-2.739,0A2.739,2.739,0,1,1,2.739,0" stroke="#eeca3b" stroke-width="2" opacity="0.7"/><path aria-label="title: Landwirtschaft und Ernährung; function: 5" role="graphics-symbol" aria-roledescription="point" transform="translate(10,110)" d="M2.739,0A2.739,2.739,0,1,1,-2.739,0A2.739,2.739,0,1,1,2.739,0" stroke="#eeca3b" stroke-width="2" opacity="0.7"/><path aria-label="title: Landwirtschaft und Ernährung; function: 5" role="graphics-symbol" aria-roledescription="point" transform="translate(10,110)" d="M2.739,0A2.739,2.739,0,1,1,-2.739,0A2.739,2.739,0,1,1,2.739,0" stroke="#eeca3b" stroke-width="2" opacity="0.7"/><path aria-label="title: Energie- und Wasserwirtschaft, Gewerbe, Dienstleistungen&quot;; function: 6" role="graphics-symbol" aria-roledescription="point" transform="translate(10,50)" d="M2.739,0A2.739,2.739,0,1,1,-2.739,0A2.739,2.739,0,1,1,2.739,0" stroke="#b279a2" stroke-width="2" opacity="0.7"/><path aria-label="title: Energie- und Wasserwirtschaft, Gewerbe, Dienstleistungen&quot;; function: 6" role="graphics-symbol" aria-roledescription="point" transform="translate(10,50)" d="M2.739,0A2.739,2.739,0,1,1,-2.739,0A2.739,2.739,0,1,1,2.739,0" stroke="#b279a2" stroke-width="2" opacity="0.7"/><path aria-label="title: Energie- und Wasserwirtschaft, Gewerbe, Dienstleistungen&quot;; function: 6" role="graphics-symbol" aria-roledescription="point" transform="translate(10,50)" d="M2.739,0A2.739,2.739,0,1,1,-2.739,0A2.739,2.739,0,1,1,2.739,0" stroke="#b279a2" stroke-width="2" opacity="0.7"/><path aria-label="title: Energie- und Wasserwirtschaft, Gewerbe, Dienstleistungen&quot;; function: 6" role="graphics-symbol" aria-roledescription="point" transform="translate(10,50)" d="M2.739,0A2.739,2.739,0,1,1,-2.739,0A2.739,2.739,0,1,1,2.739,0" stroke="#b279a2" stroke-width="2" opacity="0.7"/><path aria-label="title: Energie- und Wasserwirtschaft, Gewerbe, Dienstleistungen&quot;; function: 6" role="graphics-symbol" aria-roledescription="point" transform="translate(10,50)" d="M2.739,0A2.739,2.739,0,1,1,-2.739,0A2.739,2.739,0,1,1,2.739,0" stroke="#b279a2" stroke-width="2" opacity="0.7"/><path aria-label="title: Energie- und Wasserwirtschaft, Gewerbe, Dienstleistungen&quot;; function: 6" role="graphics-symbol" aria-roledescription="point" transform="translate(10,50)" d="M2.739,0A2.739,2.739,0,1,1,-2.739,0A2.739,2.739,0,1,1,2.739,0" stroke="#b279a2" stroke-width="2" opacity="0.7"/><path aria-label="title: Energie- und Wasserwirtschaft, Gewerbe, Dienstleistungen&quot;; function: 6" role="graphics-symbol" aria-roledescription="point" transform="translate(10,50)" d="M2.739,0A2.739,2.739,0,1,1,-2.739,0A2.739,2.739,0,1,1,2.739,0" stroke="#b279a2" stroke-width="2" opacity="0.7"/><path aria-label="title: Energie- und Wasserwirtschaft, Gewerbe, Dienstleistungen&quot;; function: 6" role="graphics-symbol" aria-roledescription="point" transform="translate(10,50)" d="M2.739,0A2.739,2.739,0,1,1,-2.739,0A2.739,2.739,0,1,1,2.739,0" stroke="#b279a2" stroke-width="2" opacity="0.7"/><path aria-label="title: Energie- und Wasserwirtschaft, Gewerbe, Dienstleistungen&quot;; function: 6" role="graphics-symbol" aria-roledescription="point" transform="translate(10,50)" d="M2.739,0A2.739,2.739,0,1,1,-2.739,0A2.739,2.739,0,1,1,2.739,0" stroke="#b279a2" stroke-width="2" opacity="0.7"/><path aria-label="title: Energie- und Wasserwirtschaft, Gewerbe, Dienstleistungen&quot;; function: 6" role="graphics-symbol" aria-roledescription="point" transform="translate(10,50)" d="M2.739,0A2.739,2.739,0,1,1,-2.739,0A2.739,2.739,0,1,1,2.739,0" stroke="#b279a2" stroke-width="2" opacity="0.7"/><path aria-label="title: Verkehrs- und Nachrichtenwesen; function: 7" role="graphics-symbol" aria-roledescription="point" transform="translate(10,150)" d="M2.739,0A2.739,2.739,0,1,1,-2.739,0A2.739,2.739,0,1,1,2.739,0" stroke="#ff9da6" stroke-width="2" opacity="0.7"/><path aria-label="title: Verkehrs- und Nachrichtenwesen; function: 7" role="graphics-symbol" aria-roledescription="point" transform="translate(10,150)" d="M2.739,0A2.739,2.739,0,1,1,-2.739,0A2.739,2.739,0,1,1,2.739,0" stroke="#ff9da6" stroke-width="2" opacity="0.7"/><path aria-label="title: Verkehrs- und Nachrichtenwesen; function: 7" role="graphics-symbol" aria-roledescription="point" transform="translate(10,150)" d="M2.739,0A2.739,2.739,0,1,1,-2.739,0A2.739,2.739,0,1,1,2.739,0" stroke="#ff9da6" stroke-width="2" opacity="0.7"/><path aria-label="title: Verkehrs- und Nachrichtenwesen; function: 7" role="graphics-symbol" aria-roledescription="point" transform="translate(10,150)" d="M2.739,0A2.739,2.739,0,1,1,-2.739,0A2.739,2.739,0,1,1,2.739,0" stroke="#ff9da6" stroke-width="2" opacity="0.7"/><path aria-label="title: Verkehrs- und Nachrichtenwesen; function: 7" role="graphics-symbol" aria-roledescription="point" transform="translate(10,150)" d="M2.739,0A2.739,2.739,0,1,1,-2.739,0A2.739,2.739,0,1,1,2.739,0" stroke="#ff9da6" stroke-width="2" opacity="0.7"/><path aria-label="title: Verkehrs- und Nachrichtenwesen; function: 7" role="graphics-symbol" aria-roledescription="point" transform="translate(10,150)" d="M2.739,0A2.739,2.739,0,1,1,-2.739,0A2.739,2.739,0,1,1,2.739,0" stroke="#ff9da6" stroke-width="2" opacity="0.7"/><path aria-label="title: Verkehrs- und Nachrichtenwesen; function: 7" role="graphics-symbol" aria-roledescription="point" transform="translate(10,150)" d="M2.739,0A2.739,2.739,0,1,1,-2.739,0A2.739,2.739,0,1,1,2.739,0" stroke="#ff9da6" stroke-width="2" opacity="0.7"/><path aria-label="title: Verkehrs- und Nachrichtenwesen; function: 7" role="graphics-symbol" aria-roledescription="point" transform="translate(10,150)" d="M2.739,0A2.739,2.739,0,1,1,-2.739,0A2.739,2.739,0,1,1,2.739,0" stroke="#ff9da6" stroke-width="2" opacity="0.7"/><path aria-label="title: Verkehrs- und Nachrichtenwesen; function: 7" role="graphics-symbol" aria-roledescription="point" transform="translate(10,150)" d="M2.739,0A2.739,2.739,0,1,1,-2.739,0A2.739,2.739,0,1,1,2.739,0" stroke="#ff9da6" stroke-width="2" opacity="0.7"/><path aria-label="title: Verkehrs- und Nachrichtenwesen; function: 7" role="graphics-symbol" aria-roledescription="point" transform="translate(10,150)" d="M2.739,0A2.739,2.739,0,1,1,-2.739,0A2.739,2.739,0,1,1,2.739,0" stroke="#ff9da6" stroke-width="2" opacity="0.7"/><path aria-label="title: Finanzwirtschaft; function: 8" role="graphics-symbol" aria-roledescription="point" transform="translate(10,70)" d="M2.739,0A2.739,2.739,0,1,1,-2.739,0A2.739,2.739,0,1,1,2.739,0" stroke="#9d755d" stroke-width="2" opacity="0.7"/><path aria-label="title: Finanzwirtschaft; function: 8" role="graphics-symbol" aria-roledescription="point" transform="translate(10,70)" d="M2.739,0A2.739,2.739,0,1,1,-2.739,0A2.739,2.739,0,1,1,2.739,0" stroke="#9d755d" stroke-width="2" opacity="0.7"/><path aria-label="title: Finanzwirtschaft; function: 8" role="graphics-symbol" aria-roledescription="point" transform="translate(10,70)" d="M2.739,0A2.739,2.739,0,1,1,-2.739,0A2.739,2.739,0,1,1,2.739,0" stroke="#9d755d" stroke-width="2" opacity="0.7"/><path aria-label="title: Finanzwirtschaft; function: 8" role="graphics-symbol" aria-roledescription="point" transform="translate(10,70)" d="M2.739,0A2.739,2.739,0,1,1,-2.739,0A2.739,2.739,0,1,1,2.739,0" stroke="#9d755d" stroke-width="2" opacity="0.7"/><path aria-label="title: Finanzwirtschaft; function: 8" role="graphics-symbol" aria-roledescription="point" transform="translate(10,70)" d="M2.739,0A2.739,2.739,0,1,1,-2.739,0A2.739,2.739,0,1,1,2.739,0" stroke="#9d755d" stroke-width="2" opacity="0.7"/><path aria-label="title: Finanzwirtschaft; function: 8" role="graphics-symbol" aria-roledescription="point" transform="translate(10,70)" d="M2.739,0A2.739,2.739,0,1,1,-2.739,0A2.739,2.739,0,1,1,2.739,0" stroke="#9d755d" stroke-width="2" opacity="0.7"/><path aria-label="title: Finanzwirtschaft; function: 8" role="graphics-symbol" aria-roledescription="point" transform="translate(10,70)" d="M2.739,0A2.739,2.739,0,1,1,-2.739,0A2.739,2.739,0,1,1,2.739,0" stroke="#9d755d" stroke-width="2" opacity="0.7"/><path aria-label="title: Finanzwirtschaft; function: 8" role="graphics-symbol" aria-roledescription="point" transform="translate(10,70)" d="M2.739,0A2.739,2.739,0,1,1,-2.739,0A2.739,2.739,0,1,1,2.739,0" stroke="#9d755d" stroke-width="2" opacity="0.7"/><path aria-label="title: Finanzwirtschaft; function: 8" role="graphics-symbol" aria-roledescription="point" transform="translate(10,70)" d="M2.739,0A2.739,2.739,0,1,1,-2.739,0A2.739,2.739,0,1,1,2.739,0" stroke="#9d755d" stroke-width="2" opacity="0.7"/><path aria-label="title: Finanzwirtschaft; function: 8" role="graphics-symbol" aria-roledescription="point" transform="translate(10,70)" d="M2.739,0A2.739,2.739,0,1,1,-2.739,0A2.739,2.739,0,1,1,2.739,0" stroke="#9d755d" stroke-width="2" opacity="0.7"/></g></g><path class="foreground" aria-hidden="true" d="" display="none"/></g></g></g><path class="foreground" aria-hidden="true" d="" display="none"/></g></g></g></svg>