<svg xmlns="http://www.w3.org/2000/svg" xmlns:xlink="http://www.w3.org/1999/xlink" version="1.1" class="marks" width="393" height="362" viewBox="0 0 393 362"><rect width="393" height="362" fill="#333"/><g fill="none" stroke-miterlimit="10" transform="translate(84,11)"><g class="mark-group role-frame root" role="graphics-object" aria-roledescription="group mark container"><g transform="translate(0,0)"><path class="background" aria-hidden="true" d="M0,0h0v0h0Z"/><g><g class="mark-group role-scope concat_0_group" role="graphics-object" aria-roledescription="group mark container"><g transform="translate(0,0)"><path class="background" aria-hidden="true" d="M0.5,0.5h60v300h-60Z" stroke="#888"/><g><g class="mark-group role-axis" aria-hidden="true"><g transform="translate(0.5,0.5)"><path class="background" aria-hidden="true" d="M0,0h0v0h0Z" pointer-events="none"/><g><g class="mark-rule role-axis-grid" pointer-events="none"><line transform="translate(0,300)" x2="60" y2="0" stroke="#888" stroke-width="1" opacity="1"/><line transform="translate(0,267)" x2="60" y2="0" stroke="#888" stroke-width="1" opacity="1"/><line transform="translate(0,233)" x2="60" y2="0" stroke="#888" stroke-width="1" opacity="1"/><line transform="translate(0,200)" x2="60" y2="0" stroke="#888" stroke-width="1" opacity="1"/><line transform="translate(0,167)" x2="60" y2="0" stroke="#888" stroke-width="1" opacity="1"/><line transform="translate(0,133)" x2="60" y2="0" stroke="#888" stroke-width="1" opacity="1"/><line transform="translate(0,100)" x2="60" y2="0" stroke="#888" stroke-width="1" opacity="1"/><line transform="translate(0,67)" x2="60" y2="0" stroke="#888" stroke-width="1" opacity="1"/><line transform="translate(0,33)" x2="60" y2="0" stroke="#888" stroke-width="1" opacity="1"/><line transform="translate(0,0)" x2="60" y2="0" stroke="#888" stroke-width="1" opacity="1"/></g></g><path class="foreground" aria-hidden="true" d="" pointer-events="none" display="none"/></g></g><g class="mark-group role-axis" role="graphics-symbol" aria-roledescription="axis" aria-label="X-axis titled 'year' for a discrete scale with 3 values: 2015, 2020, 2021"><g transform="translate(0.5,300.5)"><path class="background" aria-hidden="true" d="M0,0h0v0h0Z" pointer-events="none"/><g><g class="mark-rule role-axis-tick" pointer-events="none"><line transform="translate(10,0)" x2="0" y2="5" stroke="#fff" stroke-width="1" opacity="1"/><line transform="translate(30,0)" x2="0" y2="5" stroke="#fff" stroke-width="1" opacity="1"/><line transform="translate(50,0)" x2="0" y2="5" stroke="#fff" stroke-width="1" opacity="1"/></g><g class="mark-text role-axis-label" pointer-events="none"><text text-anchor="end" transform="translate(9.5,7) rotate(270) translate(0,3)" font-family="sans-serif" font-size="10px" fill="#fff" opacity="1">2015</text><text text-anchor="end" transform="translate(29.5,7) rotate(270) translate(0,3)" font-family="sans-serif" font-size="10px" fill="#fff" opacity="1">2020</text><text text-anchor="end" transform="translate(49.5,7) rotate(270) translate(0,3)" font-family="sans-serif" font-size="10px" fill="#fff" opacity="1">2021</text></g><g class="mark-rule role-axis-domain" pointer-events="none"><line transform="translate(0,0)" x2="60" y2="0" stroke="#fff" stroke-width="1" opacity="1"/></g><g class="mark-text role-axis-title" pointer-events="none"><text text-anchor="middle" transform="translate(30,42.24609375)" font-family="sans-serif" font-size="11px" font-weight="bold" fill="#fff" opacity="1">year</text></g></g><path class="foreground" aria-hidden="true" d="" pointer-events="none" display="none"/></g></g><g class="mark-group role-axis" role="graphics-symbol" aria-roledescription="axis" aria-label="Y-axis titled 'amount' for a linear scale with values from 0 to 180,000,000"><g transform="translate(0.5,0.5)"><path class="background" aria-hidden="true" d="M0,0h0v0h0Z" pointer-events="none"/><g><g class="mark-rule role-axis-tick" pointer-events="none"><line transform="translate(0,300)" x2="-5" y2="0" stroke="#fff" stroke-width="1" opacity="1"/><line transform="translate(0,267)" x2="-5" y2="0" stroke="#fff" stroke-width="1" opacity="1"/><line transform="translate(0,233)" x2="-5" y2="0" stroke="#fff" stroke-width="1" opacity="1"/><line transform="translate(0,200)" x2="-5" y2="0" stroke="#fff" stroke-width="1" opacity="1"/><line transform="translate(0,167)" x2="-5" y2="0" stroke="#fff" stroke-width="1" opacity="1"/><line transform="translate(0,133)" x2="-5" y2="0" stroke="#fff" stroke-width="1" opacity="1"/><line transform="translate(0,100)" x2="-5" y2="0" stroke="#fff" stroke-width="1" opacity="1"/><line transform="translate(0,67)" x2="-5" y2="0" stroke="#fff" stroke-width="1" opacity="1"/><line transform="translate(0,33)" x2="-5" y2="0" stroke="#fff" stroke-width="1" opacity="1"/><line transform="translate(0,0)" x2="-5" y2="0" stroke="#fff" stroke-width="1" opacity="1"/></g><g class="mark-text role-axis-label" pointer-events="none"><text text-anchor="end" transform="translate(-7,303)" font-family="sans-serif" font-size="10px" fill="#fff" opacity="1">0</text><text text-anchor="end" transform="translate(-7,269.66666666666663)" font-family="sans-serif" font-size="10px" fill="#fff" opacity="1">20,000,000</text><text text-anchor="end" transform="translate(-7,236.33333333333334)" font-family="sans-serif" font-size="10px" fill="#fff" opacity="1">40,000,000</text><text text-anchor="end" transform="translate(-7,203.00000000000003)" font-family="sans-serif" font-size="10px" fill="#fff" opacity="1">60,000,000</text><text text-anchor="end" transform="translate(-7,169.66666666666669)" font-family="sans-serif" font-size="10px" fill="#fff" opacity="1">80,000,000</text><text text-anchor="end" transform="translate(-7,136.33333333333331)" font-family="sans-serif" font-size="10px" fill="#fff" opacity="1">100,000,000</text><text text-anchor="end" transform="translate(-7,103.00000000000001)" font-family="sans-serif" font-size="10px" fill="#fff" opacity="1">120,000,000</text><text text-anchor="end" transform="translate(-7,69.66666666666666)" font-family="sans-serif" font-size="10px" fill="#fff" opacity="1">140,000,000</text><text text-anchor="end" transform="translate(-7,36.33333333333335)" font-family="sans-serif" font-size="10px" fill="#fff" opacity="1">160,000,000</text><text text-anchor="end" transform="translate(-7,3)" font-family="sans-serif" font-size="10px" fill="#fff" opacity="1">180,000,000</text></g><g class="mark-rule role-axis-domain" pointer-events="none"><line transform="translate(0,300)" x2="0" y2="-300" stroke="#fff" stroke-width="1" opacity="1"/></g><g class="mark-text role-axis-title" pointer-events="none"><text text-anchor="middle" transform="translate(-66.6103515625,150) rotate(-90) translate(0,-2)" font-family="sans-serif" font-size="11px" font-weight="bold" fill="#fff" opacity="1">amount</text></g></g><path class="foreground" aria-hidden="true" d="" pointer-events="none" display="none"/></g></g><g class="mark-rect role-mark concat_0_marks" role="graphics-object" aria-roledescription="rect mark container"><path aria-label="year: 2015; amount: 1156960; function: 2; title: Soziale Sicherung, Familie und Jugend, Arbeitsmarktpolitik" role="graphics-symbol" aria-roledescription="bar" d="M1,288.03077h18v1.9282666666666728h-18Z" fill="#e45756"/><path aria-label="year: 2015; amount: 771462; function: 0; title: Allgemeine Dienste" role="graphics-symbol" aria-roledescription="bar" d="M1,286.6h18v1.2857699999999568h-18Z" fill="#4c78a8"/><path aria-label="year: 2015; amount: 6004578; function: 8; title: Finanzwirtschaft" role="graphics-symbol" aria-roledescription="bar" d="M1,289.99237h18v10.007630000000006h-18Z" fill="#9d755d"/><path aria-label="year: 2015; amount: 87000; function: 1; title: Bildungswesen, Wissenschaft, Forschung, kulturelle Angelegenheiten" role="graphics-symbol" aria-roledescription="bar" d="M1,287.88577h18v0.14500000000003865h-18Z" fill="#f58518"/><path aria-label="year: 2015; amount: 10000; function: 4; title: Wohnungswesen, Städtebau, Raumordnung und kommunale&#xA;  Gemeinschaftsdienste" role="graphics-symbol" aria-roledescription="bar" d="M1,289.97570333333334h18v0.01666666666665151h-18Z" fill="#54a24b"/><path aria-label="year: 2015; amount: 10000; function: 3; title: Gesundheit, Umwelt, Sport und Erholung" role="graphics-symbol" aria-roledescription="bar" d="M1,289.9590366666667h18v0.01666666666665151h-18Z" fill="#72b7b2"/><path aria-label="year: 2020; amount: 69688700; function: 2; title: Soziale Sicherung, Familie und Jugend, Arbeitsmarktpolitik" role="graphics-symbol" aria-roledescription="bar" d="M21,35.107791666666664h18v116.14783333333332h-18Z" fill="#e45756"/><path aria-label="year: 2020; amount: 3554411; function: 0; title: Allgemeine Dienste" role="graphics-symbol" aria-roledescription="bar" d="M21,22.685023333333334h18v5.924018333333322h-18Z" fill="#4c78a8"/><path aria-label="year: 2020; amount: 3899250; function: 1; title: Bildungswesen, Wissenschaft, Forschung, kulturelle Angelegenheiten" role="graphics-symbol" aria-roledescription="bar" d="M21,28.609041666666656h18v6.498750000000008h-18Z" fill="#f58518"/><path aria-label="year: 2020; amount: 5728000; function: 7; title: Verkehrs- und Nachrichtenwesen" role="graphics-symbol" aria-roledescription="bar" d="M21,198.78666666666666h18v9.546666666666653h-18Z" fill="#ff9da6"/><path aria-label="year: 2020; amount: 55000000; function: 8; title: Finanzwirtschaft" role="graphics-symbol" aria-roledescription="bar" d="M21,208.33333333333331h18v91.66666666666669h-18Z" fill="#9d755d"/><path aria-label="year: 2020; amount: 7299250; function: 6; title: Energie- und Wasserwirtschaft, Gewerbe, Dienstleistungen&quot;" role="graphics-symbol" aria-roledescription="bar" d="M21,186.62125h18v12.165416666666658h-18Z" fill="#b279a2"/><path aria-label="year: 2020; amount: 20859875; function: 3; title: Gesundheit, Umwelt, Sport und Erholung" role="graphics-symbol" aria-roledescription="bar" d="M21,151.25562499999998h18v34.76645833333336h-18Z" fill="#72b7b2"/><path aria-label="year: 2020; amount: 29500; function: 4; title: Wohnungswesen, Städtebau, Raumordnung und kommunale&#xA;  Gemeinschaftsdienste" role="graphics-symbol" aria-roledescription="bar" d="M21,186.02208333333334h18v0.04916666666665037h-18Z" fill="#54a24b"/><path aria-label="year: 2020; amount: 330000; function: 5; title: Landwirtschaft und Ernährung" role="graphics-symbol" aria-roledescription="bar" d="M21,186.07125h18v0.5500000000000114h-18Z" fill="#eeca3b"/><path aria-label="year: 2021; amount: 31413501; function: 2; title: Soziale Sicherung, Familie und Jugend, Arbeitsmarktpolitik" role="graphics-symbol" aria-roledescription="bar" d="M41,177.92376333333334h18v52.355834999999985h-18Z" fill="#e45756"/><path aria-label="year: 2021; amount: 30441527; function: 8; title: Finanzwirtschaft" role="graphics-symbol" aria-roledescription="bar" d="M41,249.26412166666665h18v50.735878333333346h-18Z" fill="#9d755d"/><path aria-label="year: 2021; amount: 200000; function: 7; title: Verkehrs- und Nachrichtenwesen" role="graphics-symbol" aria-roledescription="bar" d="M41,248.93078833333334h18v0.3333333333333144h-18Z" fill="#ff9da6"/><path aria-label="year: 2021; amount: 1020000; function: 1; title: Bildungswesen, Wissenschaft, Forschung, kulturelle Angelegenheiten" role="graphics-symbol" aria-roledescription="bar" d="M41,176.22376333333335h18v1.6999999999999886h-18Z" fill="#f58518"/><path aria-label="year: 2021; amount: 11190714; function: 3; title: Gesundheit, Umwelt, Sport und Erholung" role="graphics-symbol" aria-roledescription="bar" d="M41,230.27959833333333h18v18.651190000000014h-18Z" fill="#72b7b2"/></g></g><path class="foreground" aria-hidden="true" d="" display="none"/></g></g><g class="mark-group role-scope concat_1_group" role="graphics-object" aria-roledescription="group mark container"><g transform="translate(82,0)"><path class="background" aria-hidden="true" d="M0.5,0.5h20v180h-20Z" stroke="#888"/><g><g class="mark-group role-axis" role="graphics-symbol" aria-roledescription="axis" aria-label="Y-axis titled 'title' for a discrete scale with 9 values: Allgemeine Dienste, Bildungswesen, Wissenschaft, Forschung, kulturelle Angelegenheiten, Energie- und Wasserwirtschaft, Gewerbe, Dienstleistungen&quot;, Finanzwirtschaft, Gesundheit, Umwelt, Sport und Erholung, ending with Wohnungswesen, Städtebau, Raumordnung und kommunale&#xA;  Gemeinschaftsdienste"><g transform="translate(20.5,0.5)"><path class="background" aria-hidden="true" d="M0,0h0v0h0Z" pointer-events="none"/><g><g class="mark-rule role-axis-tick" pointer-events="none"><line transform="translate(0,10)" x2="5" y2="0" stroke="#fff" stroke-width="1" opacity="1"/><line transform="translate(0,30)" x2="5" y2="0" stroke="#fff" stroke-width="1" opacity="1"/><line transform="translate(0,50)" x2="5" y2="0" stroke="#fff" stroke-width="1" opacity="1"/><line transform="translate(0,70)" x2="5" y2="0" stroke="#fff" stroke-width="1" opacity="1"/><line transform="translate(0,90)" x2="5" y2="0" stroke="#fff" stroke-width="1" opacity="1"/><line transform="translate(0,110)" x2="5" y2="0" stroke="#fff" stroke-width="1" opacity="1"/><line transform="translate(0,130)" x2="5" y2="0" stroke="#fff" stroke-width="1" opacity="1"/><line transform="translate(0,150)" x2="5" y2="0" stroke="#fff" stroke-width="1" opacity="1"/><line transform="translate(0,170)" x2="5" y2="0" stroke="#fff" stroke-width="1" opacity="1"/></g><g class="mark-text role-axis-label" pointer-events="none"><text text-anchor="start" transform="translate(7,13)" font-family="sans-serif" font-size="10px" fill="#fff" opacity="1">Allgemeine Dienste</text><text text-anchor="start" transform="translate(7,33)" font-family="sans-serif" font-size="10px" fill="#fff" opacity="1">Bildungswesen, Wissenschaft, Forsch…</text><text text-anchor="start" transform="translate(7,53)" font-family="sans-serif" font-size="10px" fill="#fff" opacity="1">Energie- und Wasserwirtschaft, Gewe…</text><text text-anchor="start" transform="translate(7,73)" font-family="sans-serif" font-size="10px" fill="#fff" opacity="1">Finanzwirtschaft</text><text text-anchor="start" transform="translate(7,93)" font-family="sans-serif" font-size="10px" fill="#fff" opacity="1">Gesundheit, Umwelt, Sport und Erhol…</text><text text-anchor="start" transform="translate(7,113)" font-family="sans-serif" font-size="10px" fill="#fff" opacity="1">Landwirtschaft und Ernährung</text><text text-anchor="start" transform="translate(7,133)" font-family="sans-serif" font-size="10px" fill="#fff" opacity="1">Soziale Sicherung, Familie und Jugen…</text><text text-anchor="start" transform="translate(7,153)" font-family="sans-serif" font-size="10px" fill="#fff" opacity="1">Verkehrs- und Nachrichtenwesen</text><text text-anchor="start" transform="translate(7,173)" font-family="sans-serif" font-size="10px" fill="#fff" opacity="1">Wohnungswesen, Städtebau, Raumor…</text></g><g class="mark-rule role-axis-domain" pointer-events="none"><line transform="translate(0,0)" x2="0" y2="180" stroke="#fff" stroke-width="1" opacity="1"/></g><g class="mark-text role-axis-title" pointer-events="none"><text text-anchor="middle" transform="translate(189.8134765625,90) rotate(90) translate(0,-2)" font-family="sans-serif" font-size="11px" font-weight="bold" fill="#fff" opacity="1">title</text></g></g><path class="foreground" aria-hidden="true" d="" pointer-events="none" display="none"/></g></g><g class="mark-symbol role-mark concat_1_marks" role="graphics-object" aria-roledescription="symbol mark container"><path aria-label="title: Soziale Sicherung, Familie und Jugend, Arbeitsmarktpolitik; function: 2" role="graphics-symbol" aria-roledescription="point" transform="translate(10,130)" d="M2.739,0A2.739,2.739,0,1,1,-2.739,0A2.739,2.739,0,1,1,2.739,0" stroke="#e45756" stroke-width="2" opacity="0.7"/><path aria-label="title: Allgemeine Dienste; function: 0" role="graphics-symbol" aria-roledescription="point" transform="translate(10,10)" d="M2.739,0A2.739,2.739,0,1,1,-2.739,0A2.739,2.739,0,1,1,2.739,0" stroke="#4c78a8" stroke-width="2" opacity="0.7"/><path aria-label="title: Finanzwirtschaft; function: 8" role="graphics-symbol" aria-roledescription="point" transform="translate(10,70)" d="M2.739,0A2.739,2.739,0,1,1,-2.739,0A2.739,2.739,0,1,1,2.739,0" stroke="#9d755d" stroke-width="2" opacity="0.7"/><path aria-label="title: Bildungswesen, Wissenschaft, Forschung, kulturelle Angelegenheiten; function: 1" role="graphics-symbol" aria-roledescription="point" transform="translate(10,30)" d="M2.739,0A2.739,2.739,0,1,1,-2.739,0A2.739,2.739,0,1,1,2.739,0" stroke="#f58518" stroke-width="2" opacity="0.7"/><path aria-label="title: Verkehrs- und Nachrichtenwesen; function: 7" role="graphics-symbol" aria-roledescription="point" transform="translate(10,150)" d="M2.739,0A2.739,2.739,0,1,1,-2.739,0A2.739,2.739,0,1,1,2.739,0" stroke="#ff9da6" stroke-width="2" opacity="0.7"/><path aria-label="title: Energie- und Wasserwirtschaft, Gewerbe, Dienstleistungen&quot;; function: 6" role="graphics-symbol" aria-roledescription="point" transform="translate(10,50)" d="M2.739,0A2.739,2.739,0,1,1,-2.739,0A2.739,2.739,0,1,1,2.739,0" stroke="#b279a2" stroke-width="2" opacity="0.7"/><path aria-label="title: Wohnungswesen, Städtebau, Raumordnung und kommunale&#xA;  Gemeinschaftsdienste; function: 4" role="graphics-symbol" aria-roledescription="point" transform="translate(10,170)" d="M2.739,0A2.739,2.739,0,1,1,-2.739,0A2.739,2.739,0,1,1,2.739,0" stroke="#54a24b" stroke-width="2" opacity="0.7"/><path aria-label="title: Gesundheit, Umwelt, Sport und Erholung; function: 3" role="graphics-symbol" aria-roledescription="point" transform="translate(10,90)" d="M2.739,0A2.739,2.739,0,1,1,-2.739,0A2.739,2.739,0,1,1,2.739,0" stroke="#72b7b2" stroke-width="2" opacity="0.7"/><path aria-label="title: Landwirtschaft und Ernährung; function: 5" role="graphics-symbol" aria-roledescription="point" transform="translate(10,110)" d="M2.739,0A2.739,2.739,0,1,1,-2.739,0A2.739,2.739,0,1,1,2.739,0" stroke="#eeca3b" stroke-width="2" opacity="0.7"/><path aria-label="title: Soziale Sicherung, Familie und Jugend, Arbeitsmarktpolitik; function: 2" role="graphics-symbol" aria-roledescription="point" transform="translate(10,130)" d="M2.739,0A2.739,2.739,0,1,1,-2.739,0A2.739,2.739,0,1,1,2.739,0" stroke="#e45756" stroke-width="2" opacity="0.7"/><path aria-label="title: Allgemeine Dienste; function: 0" role="graphics-symbol" aria-roledescription="point" transform="translate(10,10)" d="M2.739,0A2.739,2.739,0,1,1,-2.739,0A2.739,2.739,0,1,1,2.739,0" stroke="#4c78a8" stroke-width="2" opacity="0.7"/><path aria-label="title: Bildungswesen, Wissenschaft, Forschung, kulturelle Angelegenheiten; function: 1" role="graphics-symbol" aria-roledescription="point" transform="translate(10,30)" d="M2.739,0A2.739,2.739,0,1,1,-2.739,0A2.739,2.739,0,1,1,2.739,0" stroke="#f58518" stroke-width="2" opacity="0.7"/><path aria-label="title: Finanzwirtschaft; function: 8" role="graphics-symbol" aria-roledescription="point" transform="translate(10,70)" d="M2.739,0A2.739,2.739,0,1,1,-2.739,0A2.739,2.739,0,1,1,2.739,0" stroke="#9d755d" stroke-width="2" opacity="0.7"/><path aria-label="title: Verkehrs- und Nachrichtenwesen; function: 7" role="graphics-symbol" aria-roledescription="point" transform="translate(10,150)" d="M2.739,0A2.739,2.739,0,1,1,-2.739,0A2.739,2.739,0,1,1,2.739,0" stroke="#ff9da6" stroke-width="2" opacity="0.7"/><path aria-label="title: Energie- und Wasserwirtschaft, Gewerbe, Dienstleistungen&quot;; function: 6" role="graphics-symbol" aria-roledescription="point" transform="translate(10,50)" d="M2.739,0A2.739,2.739,0,1,1,-2.739,0A2.739,2.739,0,1,1,2.739,0" stroke="#b279a2" stroke-width="2" opacity="0.7"/><path aria-label="title: Wohnungswesen, Städtebau, Raumordnung und kommunale&#xA;  Gemeinschaftsdienste; function: 4" role="graphics-symbol" aria-roledescription="point" transform="translate(10,170)" d="M2.739,0A2.739,2.739,0,1,1,-2.739,0A2.739,2.739,0,1,1,2.739,0" stroke="#54a24b" stroke-width="2" opacity="0.7"/><path aria-label="title: Gesundheit, Umwelt, Sport und Erholung; function: 3" role="graphics-symbol" aria-roledescription="point" transform="translate(10,90)" d="M2.739,0A2.739,2.739,0,1,1,-2.739,0A2.739,2.739,0,1,1,2.739,0" stroke="#72b7b2" stroke-width="2" opacity="0.7"/><path aria-label="title: Landwirtschaft und Ernährung; function: 5" role="graphics-symbol" aria-roledescription="point" transform="translate(10,110)" d="M2.739,0A2.739,2.739,0,1,1,-2.739,0A2.739,2.739,0,1,1,2.739,0" stroke="#eeca3b" stroke-width="2" opacity="0.7"/><path aria-label="title: Soziale Sicherung, Familie und Jugend, Arbeitsmarktpolitik; function: 2" role="graphics-symbol" aria-roledescription="point" transform="translate(10,130)" d="M2.739,0A2.739,2.739,0,1,1,-2.739,0A2.739,2.739,0,1,1,2.739,0" stroke="#e45756" stroke-width="2" opacity="0.7"/><path aria-label="title: Allgemeine Dienste; function: 0" role="graphics-symbol" aria-roledescription="point" transform="translate(10,10)" d="M2.739,0A2.739,2.739,0,1,1,-2.739,0A2.739,2.739,0,1,1,2.739,0" stroke="#4c78a8" stroke-width="2" opacity="0.7"/><path aria-label="title: Finanzwirtschaft; function: 8" role="graphics-symbol" aria-roledescription="point" transform="translate(10,70)" d="M2.739,0A2.739,2.739,0,1,1,-2.739,0A2.739,2.739,0,1,1,2.739,0" stroke="#9d755d" stroke-width="2" opacity="0.7"/><path aria-label="title: Bildungswesen, Wissenschaft, Forschung, kulturelle Angelegenheiten; function: 1" role="graphics-symbol" aria-roledescription="point" transform="translate(10,30)" d="M2.739,0A2.739,2.739,0,1,1,-2.739,0A2.739,2.739,0,1,1,2.739,0" stroke="#f58518" stroke-width="2" opacity="0.7"/><path aria-label="title: Verkehrs- und Nachrichtenwesen; function: 7" role="graphics-symbol" aria-roledescription="point" transform="translate(10,150)" d="M2.739,0A2.739,2.739,0,1,1,-2.739,0A2.739,2.739,0,1,1,2.739,0" stroke="#ff9da6" stroke-width="2" opacity="0.7"/><path aria-label="title: Energie- und Wasserwirtschaft, Gewerbe, Dienstleistungen&quot;; function: 6" role="graphics-symbol" aria-roledescription="point" transform="translate(10,50)" d="M2.739,0A2.739,2.739,0,1,1,-2.739,0A2.739,2.739,0,1,1,2.739,0" stroke="#b279a2" stroke-width="2" opacity="0.7"/><path aria-label="title: Wohnungswesen, Städtebau, Raumordnung und kommunale&#xA;  Gemeinschaftsdienste; function: 4" role="graphics-symbol" aria-roledescription="point" transform="translate(10,170)" d="M2.739,0A2.739,2.739,0,1,1,-2.739,0A2.739,2.739,0,1,1,2.739,0" stroke="#54a24b" stroke-width="2" opacity="0.7"/><path aria-label="title: Gesundheit, Umwelt, Sport und Erholung; function: 3" role="graphics-symbol" aria-roledescription="point" transform="translate(10,90)" d="M2.739,0A2.739,2.739,0,1,1,-2.739,0A2.739,2.739,0,1,1,2.739,0" stroke="#72b7b2" stroke-width="2" opacity="0.7"/><path aria-label="title: Landwirtschaft und Ernährung; function: 5" role="graphics-symbol" aria-roledescription="point" transform="translate(10,110)" d="M2.739,0A2.739,2.739,0,1,1,-2.739,0A2.739,2.739,0,1,1,2.739,0" stroke="#eeca3b" stroke-width="2" opacity="0.7"/><path aria-label="title: Soziale Sicherung, Familie und Jugend, Arbeitsmarktpolitik; function: 2" role="graphics-symbol" aria-roledescription="point" transform="translate(10,130)" d="M2.739,0A2.739,2.739,0,1,1,-2.739,0A2.739,2.739,0,1,1,2.739,0" stroke="#e45756" stroke-width="2" opacity="0.7"/><path aria-label="title: Allgemeine Dienste; function: 0" role="graphics-symbol" aria-roledescription="point" transform="translate(10,10)" d="M2.739,0A2.739,2.739,0,1,1,-2.739,0A2.739,2.739,0,1,1,2.739,0" stroke="#4c78a8" stroke-width="2" opacity="0.7"/><path aria-label="title: Finanzwirtschaft; function: 8" role="graphics-symbol" aria-roledescription="point" transform="translate(10,70)" d="M2.739,0A2.739,2.739,0,1,1,-2.739,0A2.739,2.739,0,1,1,2.739,0" stroke="#9d755d" stroke-width="2" opacity="0.7"/><path aria-label="title: Verkehrs- und Nachrichtenwesen; function: 7" role="graphics-symbol" aria-roledescription="point" transform="translate(10,150)" d="M2.739,0A2.739,2.739,0,1,1,-2.739,0A2.739,2.739,0,1,1,2.739,0" stroke="#ff9da6" stroke-width="2" opacity="0.7"/><path aria-label="title: Bildungswesen, Wissenschaft, Forschung, kulturelle Angelegenheiten; function: 1" role="graphics-symbol" aria-roledescription="point" transform="translate(10,30)" d="M2.739,0A2.739,2.739,0,1,1,-2.739,0A2.739,2.739,0,1,1,2.739,0" stroke="#f58518" stroke-width="2" opacity="0.7"/><path aria-label="title: Energie- und Wasserwirtschaft, Gewerbe, Dienstleistungen&quot;; function: 6" role="graphics-symbol" aria-roledescription="point" transform="translate(10,50)" d="M2.739,0A2.739,2.739,0,1,1,-2.739,0A2.739,2.739,0,1,1,2.739,0" stroke="#b279a2" stroke-width="2" opacity="0.7"/><path aria-label="title: Gesundheit, Umwelt, Sport und Erholung; function: 3" role="graphics-symbol" aria-roledescription="point" transform="translate(10,90)" d="M2.739,0A2.739,2.739,0,1,1,-2.739,0A2.739,2.739,0,1,1,2.739,0" stroke="#72b7b2" stroke-width="2" opacity="0.7"/><path aria-label="title: Wohnungswesen, Städtebau, Raumordnung und kommunale&#xA;  Gemeinschaftsdienste; function: 4" role="graphics-symbol" aria-roledescription="point" transform="translate(10,170)" d="M2.739,0A2.739,2.739,0,1,1,-2.739,0A2.739,2.739,0,1,1,2.739,0" stroke="#54a24b" stroke-width="2" opacity="0.7"/><path aria-label="title: Landwirtschaft und Ernährung; function: 5" role="graphics-symbol" aria-roledescription="point" transform="translate(10,110)" d="M2.739,0A2.739,2.739,0,1,1,-2.739,0A2.739,2.739,0,1,1,2.739,0" stroke="#eeca3b" stroke-width="2" opacity="0.7"/><path aria-label="title: Soziale Sicherung, Familie und Jugend, Arbeitsmarktpolitik; function: 2" role="graphics-symbol" aria-roledescription="point" transform="translate(10,130)" d="M2.739,0A2.739,2.739,0,1,1,-2.739,0A2.739,2.739,0,1,1,2.739,0" stroke="#e45756" stroke-width="2" opacity="0.7"/><path aria-label="title: Allgemeine Dienste; function: 0" role="graphics-symbol" aria-roledescription="point" transform="translate(10,10)" d="M2.739,0A2.739,2.739,0,1,1,-2.739,0A2.739,2.739,0,1,1,2.739,0" stroke="#4c78a8" stroke-width="2" opacity="0.7"/><path aria-label="title: Finanzwirtschaft; function: 8" role="graphics-symbol" aria-roledescription="point" transform="translate(10,70)" d="M2.739,0A2.739,2.739,0,1,1,-2.739,0A2.739,2.739,0,1,1,2.739,0" stroke="#9d755d" stroke-width="2" opacity="0.7"/><path aria-label="title: Bildungswesen, Wissenschaft, Forschung, kulturelle Angelegenheiten; function: 1" role="graphics-symbol" aria-roledescription="point" transform="translate(10,30)" d="M2.739,0A2.739,2.739,0,1,1,-2.739,0A2.739,2.739,0,1,1,2.739,0" stroke="#f58518" stroke-width="2" opacity="0.7"/><path aria-label="title: Verkehrs- und Nachrichtenwesen; function: 7" role="graphics-symbol" aria-roledescription="point" transform="translate(10,150)" d="M2.739,0A2.739,2.739,0,1,1,-2.739,0A2.739,2.739,0,1,1,2.739,0" stroke="#ff9da6" stroke-width="2" opacity="0.7"/><path aria-label="title: Gesundheit, Umwelt, Sport und Erholung; function: 3" role="graphics-symbol" aria-roledescription="point" transform="translate(10,90)" d="M2.739,0A2.739,2.739,0,1,1,-2.739,0A2.739,2.739,0,1,1,2.739,0" stroke="#72b7b2" stroke-width="2" opacity="0.7"/><path aria-label="title: Energie- und Wasserwirtschaft, Gewerbe, Dienstleistungen&quot;; function: 6" role="graphics-symbol" aria-roledescription="point" transform="translate(10,50)" d="M2.739,0A2.739,2.739,0,1,1,-2.739,0A2.739,2.739,0,1,1,2.739,0" stroke="#b279a2" stroke-width="2" opacity="0.7"/><path aria-label="title: Wohnungswesen, Städtebau, Raumordnung und kommunale&#xA;  Gemeinschaftsdienste; function: 4" role="graphics-symbol" aria-roledescription="point" transform="translate(10,170)" d="M2.739,0A2.739,2.739,0,1,1,-2.739,0A2.739,2.739,0,1,1,2.739,0" stroke="#54a24b" stroke-width="2" opacity="0.7"/><path aria-label="title: Landwirtschaft und Ernährung; function: 5" role="graphics-symbol" aria-roledescription="point" transform="translate(10,110)" d="M2.739,0A2.739,2.739,0,1,1,-2.739,0A2.739,2.739,0,1,1,2.739,0" stroke="#eeca3b" stroke-width="2" opacity="0.7"/><path aria-label="title: Soziale Sicherung, Familie und Jugend, Arbeitsmarktpolitik; function: 2" role="graphics-symbol" aria-roledescription="point" transform="translate(10,130)" d="M2.739,0A2.739,2.739,0,1,1,-2.739,0A2.739,2.739,0,1,1,2.739,0" stroke="#e45756" stroke-width="2" opacity="0.7"/><path aria-label="title: Allgemeine Dienste; function: 0" role="graphics-symbol" aria-roledescription="point" transform="translate(10,10)" d="M2.739,0A2.739,2.739,0,1,1,-2.739,0A2.739,2.739,0,1,1,2.739,0" stroke="#4c78a8" stroke-width="2" opacity="0.7"/><path aria-label="title: Bildungswesen, Wissenschaft, Forschung, kulturelle Angelegenheiten; function: 1" role="graphics-symbol" aria-roledescription="point" transform="translate(10,30)" d="M2.739,0A2.739,2.739,0,1,1,-2.739,0A2.739,2.739,0,1,1,2.739,0" stroke="#f58518" stroke-width="2" opacity="0.7"/><path aria-label="title: Finanzwirtschaft; function: 8" role="graphics-symbol" aria-roledescription="point" transform="translate(10,70)" d="M2.739,0A2.739,2.739,0,1,1,-2.739,0A2.739,2.739,0,1,1,2.739,0" stroke="#9d755d" stroke-width="2" opacity="0.7"/><path aria-label="title: Verkehrs- und Nachrichtenwesen; function: 7" role="graphics-symbol" aria-roledescription="point" transform="translate(10,150)" d="M2.739,0A2.739,2.739,0,1,1,-2.739,0A2.739,2.739,0,1,1,2.739,0" stroke="#ff9da6" stroke-width="2" opacity="0.7"/><path aria-label="title: Energie- und Wasserwirtschaft, Gewerbe, Dienstleistungen&quot;; function: 6" role="graphics-symbol" aria-roledescription="point" transform="translate(10,50)" d="M2.739,0A2.739,2.739,0,1,1,-2.739,0A2.739,2.739,0,1,1,2.739,0" stroke="#b279a2" stroke-width="2" opacity="0.7"/><path aria-label="title: Wohnungswesen, Städtebau, Raumordnung und kommunale&#xA;  Gemeinschaftsdienste; function: 4" role="graphics-symbol" aria-roledescription="point" transform="translate(10,170)" d="M2.739,0A2.739,2.739,0,1,1,-2.739,0A2.739,2.739,0,1,1,2.739,0" stroke="#54a24b" stroke-width="2" opacity="0.7"/><path aria-label="title: Gesundheit, Umwelt, Sport und Erholung; function: 3" role="graphics-symbol" aria-roledescription="point" transform="translate(10,90)" d="M2.739,0A2.739,2.739,0,1,1,-2.739,0A2.739,2.739,0,1,1,2.739,0" stroke="#72b7b2" stroke-width="2" opacity="0.7"/><path aria-label="title: Landwirtschaft und Ernährung; function: 5" role="graphics-symbol" aria-roledescription="point" transform="translate(10,110)" d="M2.739,0A2.739,2.739,0,1,1,-2.739,0A2.739,2.739,0,1,1,2.739,0" stroke="#eeca3b" stroke-width="2" opacity="0.7"/><path aria-label="title: Soziale Sicherung, Familie und Jugend, Arbeitsmarktpolitik; function: 2" role="graphics-symbol" aria-roledescription="point" transform="translate(10,130)" d="M2.739,0A2.739,2.739,0,1,1,-2.739,0A2.739,2.739,0,1,1,2.739,0" stroke="#e45756" stroke-width="2" opacity="0.7"/><path aria-label="title: Allgemeine Dienste; function: 0" role="graphics-symbol" aria-roledescription="point" transform="translate(10,10)" d="M2.739,0A2.739,2.739,0,1,1,-2.739,0A2.739,2.739,0,1,1,2.739,0" stroke="#4c78a8" stroke-width="2" opacity="0.7"/><path aria-label="title: Finanzwirtschaft; function: 8" role="graphics-symbol" aria-roledescription="point" transform="translate(10,70)" d="M2.739,0A2.739,2.739,0,1,1,-2.739,0A2.739,2.739,0,1,1,2.739,0" stroke="#9d755d" stroke-width="2" opacity="0.7"/><path aria-label="title: Bildungswesen, Wissenschaft, Forschung, kulturelle Angelegenheiten; function: 1" role="graphics-symbol" aria-roledescription="point" transform="translate(10,30)" d="M2.739,0A2.739,2.739,0,1,1,-2.739,0A2.739,2.739,0,1,1,2.739,0" stroke="#f58518" stroke-width="2" opacity="0.7"/><path aria-label="title: Verkehrs- und Nachrichtenwesen; function: 7" role="graphics-symbol" aria-roledescription="point" transform="translate(10,150)" d="M2.739,0A2.739,2.739,0,1,1,-2.739,0A2.739,2.739,0,1,1,2.739,0" stroke="#ff9da6" stroke-width="2" opacity="0.7"/><path aria-label="title: Energie- und Wasserwirtschaft, Gewerbe, Dienstleistungen&quot;; function: 6" role="graphics-symbol" aria-roledescription="point" transform="translate(10,50)" d="M2.739,0A2.739,2.739,0,1,1,-2.739,0A2.739,2.739,0,1,1,2.739,0" stroke="#b279a2" stroke-width="2" opacity="0.7"/><path aria-label="title: Wohnungswesen, Städtebau, Raumordnung und kommunale&#xA;  Gemeinschaftsdienste; function: 4" role="graphics-symbol" aria-roledescription="point" transform="translate(10,170)" d="M2.739,0A2.739,2.739,0,1,1,-2.739,0A2.739,2.739,0,1,1,2.739,0" stroke="#54a24b" stroke-width="2" opacity="0.7"/><path aria-label="title: Gesundheit, Umwelt, Sport und Erholung; function: 3" role="graphics-symbol" aria-roledescription="point" transform="translate(10,90)" d="M2.739,0A2.739,2.739,0,1,1,-2.739,0A2.739,2.739,0,1,1,2.739,0" stroke="#72b7b2" stroke-width="2" opacity="0.7"/><path aria-label="title: Landwirtschaft und Ernährung; function: 5" role="graphics-symbol" aria-roledescription="point" transform="translate(10,110)" d="M2.739,0A2.739,2.739,0,1,1,-2.739,0A2.739,2.739,0,1,1,2.739,0" stroke="#eeca3b" stroke-width="2" opacity="0.7"/><path aria-label="title: Soziale Sicherung, Familie und Jugend, Arbeitsmarktpolitik; function: 2" role="graphics-symbol" aria-roledescription="point" transform="translate(10,130)" d="M2.739,0A2.739,2.739,0,1,1,-2.739,0A2.739,2.739,0,1,1,2.739,0" stroke="#e45756" stroke-width="2" opacity="0.7"/><path aria-label="title: Soziale Sicherung, Familie und Jugend, Arbeitsmarktpolitik; function: 2" role="graphics-symbol" aria-roledescription="point" transform="translate(10,130)" d="M2.739,0A2.739,2.739,0,1,1,-2.739,0A2.739,2.739,0,1,1,2.739,0" stroke="#e45756" stroke-width="2" opacity="0.7"/><path aria-label="title: Allgemeine Dienste; function: 0" role="graphics-symbol" aria-roledescription="point" transform="translate(10,10)" d="M2.739,0A2.739,2.739,0,1,1,-2.739,0A2.739,2.739,0,1,1,2.739,0" stroke="#4c78a8" stroke-width="2" opacity="0.7"/><path aria-label="title: Allgemeine Dienste; function: 0" role="graphics-symbol" aria-roledescription="point" transform="translate(10,10)" d="M2.739,0A2.739,2.739,0,1,1,-2.739,0A2.739,2.739,0,1,1,2.739,0" stroke="#4c78a8" stroke-width="2" opacity="0.7"/><path aria-label="title: Finanzwirtschaft; function: 8" role="graphics-symbol" aria-roledescription="point" transform="translate(10,70)" d="M2.739,0A2.739,2.739,0,1,1,-2.739,0A2.739,2.739,0,1,1,2.739,0" stroke="#9d755d" stroke-width="2" opacity="0.7"/><path aria-label="title: Finanzwirtschaft; function: 8" role="graphics-symbol" aria-roledescription="point" transform="translate(10,70)" d="M2.739,0A2.739,2.739,0,1,1,-2.739,0A2.739,2.739,0,1,1,2.739,0" stroke="#9d755d" stroke-width="2" opacity="0.7"/><path aria-label="title: Bildungswesen, Wissenschaft, Forschung, kulturelle Angelegenheiten; function: 1" role="graphics-symbol" aria-roledescription="point" transform="translate(10,30)" d="M2.739,0A2.739,2.739,0,1,1,-2.739,0A2.739,2.739,0,1,1,2.739,0" stroke="#f58518" stroke-width="2" opacity="0.7"/><path aria-label="title: Bildungswesen, Wissenschaft, Forschung, kulturelle Angelegenheiten; function: 1" role="graphics-symbol" aria-roledescription="point" transform="translate(10,30)" d="M2.739,0A2.739,2.739,0,1,1,-2.739,0A2.739,2.739,0,1,1,2.739,0" stroke="#f58518" stroke-width="2" opacity="0.7"/><path aria-label="title: Verkehrs- und Nachrichtenwesen; function: 7" role="graphics-symbol" aria-roledescription="point" transform="translate(10,150)" d="M2.739,0A2.739,2.739,0,1,1,-2.739,0A2.739,2.739,0,1,1,2.739,0" stroke="#ff9da6" stroke-width="2" opacity="0.7"/><path aria-label="title: Energie- und Wasserwirtschaft, Gewerbe, Dienstleistungen&quot;; function: 6" role="graphics-symbol" aria-roledescription="point" transform="translate(10,50)" d="M2.739,0A2.739,2.739,0,1,1,-2.739,0A2.739,2.739,0,1,1,2.739,0" stroke="#b279a2" stroke-width="2" opacity="0.7"/><path aria-label="title: Wohnungswesen, Städtebau, Raumordnung und kommunale&#xA;  Gemeinschaftsdienste; function: 4" role="graphics-symbol" aria-roledescription="point" transform="translate(10,170)" d="M2.739,0A2.739,2.739,0,1,1,-2.739,0A2.739,2.739,0,1,1,2.739,0" stroke="#54a24b" stroke-width="2" opacity="0.7"/><path aria-label="title: Wohnungswesen, Städtebau, Raumordnung und kommunale&#xA;  Gemeinschaftsdienste; function: 4" role="graphics-symbol" aria-roledescription="point" transform="translate(10,170)" d="M2.739,0A2.739,2.739,0,1,1,-2.739,0A2.739,2.739,0,1,1,2.739,0" stroke="#54a24b" stroke-width="2" opacity="0.7"/><path aria-label="title: Gesundheit, Umwelt, Sport und Erholung; function: 3" role="graphics-symbol" aria-roledescription="point" transform="translate(10,90)" d="M2.739,0A2.739,2.739,0,1,1,-2.739,0A2.739,2.739,0,1,1,2.739,0" stroke="#72b7b2" stroke-width="2" opacity="0.7"/><path aria-label="title: Gesundheit, Umwelt, Sport und Erholung; function: 3" role="graphics-symbol" aria-roledescription="point" transform="translate(10,90)" d="M2.739,0A2.739,2.739,0,1,1,-2.739,0A2.739,2.739,0,1,1,2.739,0" stroke="#72b7b2" stroke-width="2" opacity="0.7"/><path aria-label="title: Landwirtschaft und Ernährung; function: 5" role="graphics-symbol" aria-roledescription="point" transform="translate(10,110)" d="M2.739,0A2.739,2.739,0,1,1,-2.739,0A2.739,2.739,0,1,1,2.739,0" stroke="#eeca3b" stroke-width="2" opacity="0.7"/><path aria-label="title: Soziale Sicherung, Familie und Jugend, Arbeitsmarktpolitik; function: 2" role="graphics-symbol" aria-roledescription="point" transform="translate(10,130)" d="M2.739,0A2.739,2.739,0,1,1,-2.739,0A2.739,2.739,0,1,1,2.739,0" stroke="#e45756" stroke-width="2" opacity="0.7"/><path aria-label="title: Soziale Sicherung, Familie und Jugend, Arbeitsmarktpolitik; function: 2" role="graphics-symbol" aria-roledescription="point" transform="translate(10,130)" d="M2.739,0A2.739,2.739,0,1,1,-2.739,0A2.739,2.739,0,1,1,2.739,0" stroke="#e45756" stroke-width="2" opacity="0.7"/><path aria-label="title: Allgemeine Dienste; function: 0" role="graphics-symbol" aria-roledescription="point" transform="translate(10,10)" d="M2.739,0A2.739,2.739,0,1,1,-2.739,0A2.739,2.739,0,1,1,2.739,0" stroke="#4c78a8" stroke-width="2" opacity="0.7"/><path aria-label="title: Allgemeine Dienste; function: 0" role="graphics-symbol" aria-roledescription="point" transform="translate(10,10)" d="M2.739,0A2.739,2.739,0,1,1,-2.739,0A2.739,2.739,0,1,1,2.739,0" stroke="#4c78a8" stroke-width="2" opacity="0.7"/><path aria-label="title: Bildungswesen, Wissenschaft, Forschung, kulturelle Angelegenheiten; function: 1" role="graphics-symbol" aria-roledescription="point" transform="translate(10,30)" d="M2.739,0A2.739,2.739,0,1,1,-2.739,0A2.739,2.739,0,1,1,2.739,0" stroke="#f58518" stroke-width="2" opacity="0.7"/><path aria-label="title: Bildungswesen, Wissenschaft, Forschung, kulturelle Angelegenheiten; function: 1" role="graphics-symbol" aria-roledescription="point" transform="translate(10,30)" d="M2.739,0A2.739,2.739,0,1,1,-2.739,0A2.739,2.739,0,1,1,2.739,0" stroke="#f58518" stroke-width="2" opacity="0.7"/><path aria-label="title: Verkehrs- und Nachrichtenwesen; function: 7" role="graphics-symbol" aria-roledescription="point" transform="translate(10,150)" d="M2.739,0A2.739,2.739,0,1,1,-2.739,0A2.739,2.739,0,1,1,2.739,0" stroke="#ff9da6" stroke-width="2" opacity="0.7"/><path aria-label="title: Verkehrs- und Nachrichtenwesen; function: 7" role="graphics-symbol" aria-roledescription="point" transform="translate(10,150)" d="M2.739,0A2.739,2.739,0,1,1,-2.739,0A2.739,2.739,0,1,1,2.739,0" stroke="#ff9da6" stroke-width="2" opacity="0.7"/><path aria-label="title: Finanzwirtschaft; function: 8" role="graphics-symbol" aria-roledescription="point" transform="translate(10,70)" d="M2.739,0A2.739,2.739,0,1,1,-2.739,0A2.739,2.739,0,1,1,2.739,0" stroke="#9d755d" stroke-width="2" opacity="0.7"/><path aria-label="title: Finanzwirtschaft; function: 8" role="graphics-symbol" aria-roledescription="point" transform="translate(10,70)" d="M2.739,0A2.739,2.739,0,1,1,-2.739,0A2.739,2.739,0,1,1,2.739,0" stroke="#9d755d" stroke-width="2" opacity="0.7"/><path aria-label="title: Energie- und Wasserwirtschaft, Gewerbe, Dienstleistungen&quot;; function: 6" role="graphics-symbol" aria-roledescription="point" transform="translate(10,50)" d="M2.739,0A2.739,2.739,0,1,1,-2.739,0A2.739,2.739,0,1,1,2.739,0" stroke="#b279a2" stroke-width="2" opacity="0.7"/><path aria-label="title: Energie- und Wasserwirtschaft, Gewerbe, Dienstleistungen&quot;; function: 6" role="graphics-symbol" aria-roledescription="point" transform="translate(10,50)" d="M2.739,0A2.739,2.739,0,1,1,-2.739,0A2.739,2.739,0,1,1,2.739,0" stroke="#b279a2" stroke-width="2" opacity="0.7"/><path aria-label="title: Gesundheit, Umwelt, Sport und Erholung; function: 3" role="graphics-symbol" aria-roledescription="point" transform="translate(10,90)" d="M2.739,0A2.739,2.739,0,1,1,-2.739,0A2.739,2.739,0,1,1,2.739,0" stroke="#72b7b2" stroke-width="2" opacity="0.7"/><path aria-label="title: Gesundheit, Umwelt, Sport und Erholung; function: 3" role="graphics-symbol" aria-roledescription="point" transform="translate(10,90)" d="M2.739,0A2.739,2.739,0,1,1,-2.739,0A2.739,2.739,0,1,1,2.739,0" stroke="#72b7b2" stroke-width="2" opacity="0.7"/><path aria-label="title: Wohnungswesen, Städtebau, Raumordnung und kommunale&#xA;  Gemeinschaftsdienste; function: 4" role="graphics-symbol" aria-roledescription="point" transform="translate(10,170)" d="M2.739,0A2.739,2.739,0,1,1,-2.739,0A2.739,2.739,0,1,1,2.739,0" stroke="#54a24b" stroke-width="2" opacity="0.7"/><path aria-label="title: Wohnungswesen, Städtebau, Raumordnung und kommunale&#xA;  Gemeinschaftsdienste; function: 4" role="graphics-symbol" aria-roledescription="point" transform="translate(10,170)" d="M2.739,0A2.739,2.739,0,1,1,-2.739,0A2.739,2.739,0,1,1,2.739,0" stroke="#54a24b" stroke-width="2" opacity="0.7"/><path aria-label="title: Landwirtschaft und Ernährung; function: 5" role="graphics-symbol" aria-roledescription="point" transform="translate(10,110)" d="M2.739,0A2.739,2.739,0,1,1,-2.739,0A2.739,2.739,0,1,1,2.739,0" stroke="#eeca3b" stroke-width="2" opacity="0.7"/><path aria-label="title: Landwirtschaft und Ernährung; function: 5" role="graphics-symbol" aria-roledescription="point" transform="translate(10,110)" d="M2.739,0A2.739,2.739,0,1,1,-2.739,0A2.739,2.739,0,1,1,2.739,0" stroke="#eeca3b" stroke-width="2" opacity="0.7"/><path aria-label="title: Soziale Sicherung, Familie und Jugend, Arbeitsmarktpolitik; function: 2" role="graphics-symbol" aria-roledescription="point" transform="translate(10,130)" d="M2.739,0A2.739,2.739,0,1,1,-2.739,0A2.739,2.739,0,1,1,2.739,0" stroke="#e45756" stroke-width="2" opacity="0.7"/><path aria-label="title: Allgemeine Dienste; function: 0" role="graphics-symbol" aria-roledescription="point" transform="translate(10,10)" d="M2.739,0A2.739,2.739,0,1,1,-2.739,0A2.739,2.739,0,1,1,2.739,0" stroke="#4c78a8" stroke-width="2" opacity="0.7"/><path aria-label="title: Finanzwirtschaft; function: 8" role="graphics-symbol" aria-roledescription="point" transform="translate(10,70)" d="M2.739,0A2.739,2.739,0,1,1,-2.739,0A2.739,2.739,0,1,1,2.739,0" stroke="#9d755d" stroke-width="2" opacity="0.7"/><path aria-label="title: Bildungswesen, Wissenschaft, Forschung, kulturelle Angelegenheiten; function: 1" role="graphics-symbol" aria-roledescription="point" transform="translate(10,30)" d="M2.739,0A2.739,2.739,0,1,1,-2.739,0A2.739,2.739,0,1,1,2.739,0" stroke="#f58518" stroke-width="2" opacity="0.7"/><path aria-label="title: Verkehrs- und Nachrichtenwesen; function: 7" role="graphics-symbol" aria-roledescription="point" transform="translate(10,150)" d="M2.739,0A2.739,2.739,0,1,1,-2.739,0A2.739,2.739,0,1,1,2.739,0" stroke="#ff9da6" stroke-width="2" opacity="0.7"/><path aria-label="title: Energie- und Wasserwirtschaft, Gewerbe, Dienstleistungen&quot;; function: 6" role="graphics-symbol" aria-roledescription="point" transform="translate(10,50)" d="M2.739,0A2.739,2.739,0,1,1,-2.739,0A2.739,2.739,0,1,1,2.739,0" stroke="#b279a2" stroke-width="2" opacity="0.7"/><path aria-label="title: Gesundheit, Umwelt, Sport und Erholung; function: 3" role="graphics-symbol" aria-roledescription="point" transform="translate(10,90)" d="M2.739,0A2.739,2.739,0,1,1,-2.739,0A2.739,2.739,0,1,1,2.739,0" stroke="#72b7b2" stroke-width="2" opacity="0.7"/><path aria-label="title: Wohnungswesen, Städtebau, Raumordnung und kommunale&#xA;  Gemeinschaftsdienste; function: 4" role="graphics-symbol" aria-roledescription="point" transform="translate(10,170)" d="M2.739,0A2.739,2.739,0,1,1,-2.739,0A2.739,2.739,0,1,1,2.739,0" stroke="#54a24b" stroke-width="2" opacity="0.7"/><path aria-label="title: Landwirtschaft und Ernährung; function: 5" role="graphics-symbol" aria-roledescription="point" transform="translate(10,110)" d="M2.739,0A2.739,2.739,0,1,1,-2.739,0A2.739,2.739,0,1,1,2.739,0" stroke="#eeca3b" stroke-width="2" opacity="0.7"/><path aria-label="title: Soziale Sicherung, Familie und Jugend, Arbeitsmarktpolitik; function: 2" role="graphics-symbol" aria-roledescription="point" transform="translate(10,130)" d="M2.739,0A2.739,2.739,0,1,1,-2.739,0A2.739,2.739,0,1,1,2.739,0" stroke="#e45756" stroke-width="2" opacity="0.7"/><path aria-label="title: Soziale Sicherung, Familie und Jugend, Arbeitsmarktpolitik; function: 2" role="graphics-symbol" aria-roledescription="point" transform="translate(10,130)" d="M2.739,0A2.739,2.739,0,1,1,-2.739,0A2.739,2.739,0,1,1,2.739,0" stroke="#e45756" stroke-width="2" opacity="0.7"/><path aria-label="title: Allgemeine Dienste; function: 0" role="graphics-symbol" aria-roledescription="point" transform="translate(10,10)" d="M2.739,0A2.739,2.739,0,1,1,-2.739,0A2.739,2.739,0,1,1,2.739,0" stroke="#4c78a8" stroke-width="2" opacity="0.7"/><path aria-label="title: Finanzwirtschaft; function: 8" role="graphics-symbol" aria-roledescription="point" transform="translate(10,70)" d="M2.739,0A2.739,2.739,0,1,1,-2.739,0A2.739,2.739,0,1,1,2.739,0" stroke="#9d755d" stroke-width="2" opacity="0.7"/><path aria-label="title: Finanzwirtschaft; function: 8" role="graphics-symbol" aria-roledescription="point" transform="translate(10,70)" d="M2.739,0A2.739,2.739,0,1,1,-2.739,0A2.739,2.739,0,1,1,2.739,0" stroke="#9d755d" stroke-width="2" opacity="0.7"/><path aria-label="title: Verkehrs- und Nachrichtenwesen; function: 7" role="graphics-symbol" aria-roledescription="point" transform="translate(10,150)" d="M2.739,0A2.739,2.739,0,1,1,-2.739,0A2.739,2.739,0,1,1,2.739,0" stroke="#ff9da6" stroke-width="2" opacity="0.7"/><path aria-label="title: Verkehrs- und Nachrichtenwesen; function: 7" role="graphics-symbol" aria-roledescription="point" transform="translate(10,150)" d="M2.739,0A2.739,2.739,0,1,1,-2.739,0A2.739,2.739,0,1,1,2.739,0" stroke="#ff9da6" stroke-width="2" opacity="0.7"/><path aria-label="title: Bildungswesen, Wissenschaft, Forschung, kulturelle Angelegenheiten; function: 1" role="graphics-symbol" aria-roledescription="point" transform="translate(10,30)" d="M2.739,0A2.739,2.739,0,1,1,-2.739,0A2.739,2.739,0,1,1,2.739,0" stroke="#f58518" stroke-width="2" opacity="0.7"/><path aria-label="title: Bildungswesen, Wissenschaft, Forschung, kulturelle Angelegenheiten; function: 1" role="graphics-symbol" aria-roledescription="point" transform="translate(10,30)" d="M2.739,0A2.739,2.739,0,1,1,-2.739,0A2.739,2.739,0,1,1,2.739,0" stroke="#f58518" stroke-width="2" opacity="0.7"/><path aria-label="title: Energie- und Wasserwirtschaft, Gewerbe, Dienstleistungen&quot;; function: 6" role="graphics-symbol" aria-roledescription="point" transform="translate(10,50)" d="M2.739,0A2.739,2.739,0,1,1,-2.739,0A2.739,2.739,0,1,1,2.739,0" stroke="#b279a2" stroke-width="2" opacity="0.7"/><path aria-label="title: Gesundheit, Umwelt, Sport und Erholung; function: 3" role="graphics-symbol" aria-roledescription="point" transform="translate(10,90)" d="M2.739,0A2.739,2.739,0,1,1,-2.739,0A2.739,2.739,0,1,1,2.739,0" stroke="#72b7b2" stroke-width="2" opacity="0.7"/><path aria-label="title: Gesundheit, Umwelt, Sport und Erholung; function: 3" role="graphics-symbol" aria-roledescription="point" transform="translate(10,90)" d="M2.739,0A2.739,2.739,0,1,1,-2.739,0A2.739,2.739,0,1,1,2.739,0" stroke="#72b7b2" stroke-width="2" opacity="0.7"/><path aria-label="title: Wohnungswesen, Städtebau, Raumordnung und kommunale&#xA;  Gemeinschaftsdienste; function: 4" role="graphics-symbol" aria-roledescription="point" transform="translate(10,170)" d="M2.739,0A2.739,2.739,0,1,1,-2.739,0A2.739,2.739,0,1,1,2.739,0" stroke="#54a24b" stroke-width="2" opacity="0.7"/><path aria-label="title: Landwirtschaft und Ernährung; function: 5" role="graphics-symbol" aria-roledescription="point" transform="translate(10,110)" d="M2.739,0A2.739,2.739,0,1,1,-2.739,0A2.739,2.739,0,1,1,2.739,0" stroke="#eeca3b" stroke-width="2" opacity="0.7"/></g></g><path class="foreground" aria-hidden="true" d="" display="none"/></g></g></g><path class="foreground" aria-hidden="true" d="" display="none"/></g></g></g></svg>